<?xml version="1.0" encoding="utf-8"? width="256" height="256">
<!-- Generator: Adobe Illustrator 24.2.1, SVG Export Plug-In . SVG Version: 6.00 Build 0)  -->
<svg version="1.1" xmlns="http://www.w3.org/2000/svg" xmlns:xlink="http://www.w3.org/1999/xlink" x="0px" y="0px"
	 viewBox="0 0 500 500" style="enable-background:new 0 0 500 500;" xml:space="preserve">
<style type="text/css">
	.st0{fill:#FBC326;}
	.st1{fill:#FFFFFF;}
	.st2{fill:#2B88C9;}
	.st3{fill:#FFD72E;}
	.st4{fill:#0F3840;}
	.st5{fill:#D95500;}
</style>
<g id="BACKGROUND">
</g>
<g id="OBJECTS">
	<g id="XMLID_292_">
		<g id="XMLID_306_">
			<path id="XMLID_319_" class="st0" d="M312.1,107.3l4.9-1.3c1.8-0.5,3.7,0.6,4.2,2.4l0,0c0.5,1.8-0.6,3.7-2.4,4.2l-4.9,1.3
				c-1.8,0.5-3.7-0.6-4.2-2.4l0,0C309.2,109.7,310.3,107.8,312.1,107.3z"/>
			<g id="XMLID_316_">
				<path id="XMLID_318_" class="st1" d="M347.3,165.8c2.7-0.7,5.5,0.9,6.3,3.6c0.7,2.7-0.9,5.5-3.6,6.3c-2.7,0.7-5.5-0.9-6.3-3.6
					C343,169.3,344.6,166.5,347.3,165.8z"/>
				<path id="XMLID_317_" class="st1" d="M380.3,157c2.7-0.7,5.5,0.9,6.3,3.6c0.7,2.7-0.9,5.5-3.6,6.3c-2.7,0.7-5.5-0.9-6.3-3.6
					C375.9,160.5,377.6,157.7,380.3,157z"/>
			</g>
			<g id="XMLID_313_">
				<polygon id="XMLID_315_" class="st2" points="333.9,142.2 373.5,131.5 380.3,157 340.7,167.6 				"/>
				<polygon id="XMLID_314_" class="st2" points="328.6,122.4 355,115.3 360.3,135.1 333.9,142.2 				"/>
			</g>
			<g id="XMLID_310_">
				<polygon id="XMLID_312_" class="st0" points="350.4,137.7 357,136 360.1,147.6 356.4,146.8 353.5,149.3 				"/>
				<polygon id="XMLID_311_" class="st0" points="338.5,119.7 345.1,117.9 348.2,129.5 344.5,128.8 341.6,131.3 				"/>
			</g>
			<g id="XMLID_307_">
				<path id="XMLID_309_" class="st3" d="M348.2,169.1c0.9-0.2,1.8,0.3,2.1,1.2c0.2,0.9-0.3,1.8-1.2,2.1c-0.9,0.2-1.8-0.3-2.1-1.2
					C346.8,170.3,347.3,169.4,348.2,169.1z"/>
				<path id="XMLID_308_" class="st3" d="M381.2,160.3c0.9-0.2,1.8,0.3,2.1,1.2c0.2,0.9-0.3,1.8-1.2,2.1c-0.9,0.2-1.8-0.3-2.1-1.2
					C379.7,161.5,380.3,160.5,381.2,160.3z"/>
			</g>
		</g>
		<g id="XMLID_293_">
			<path id="XMLID_297_" class="st4" d="M389.7,154.4c-0.2-0.9-1.2-1.5-2.1-1.2l-6.1,1.6l-6.4-23.8c-0.1-0.4-0.4-0.8-0.8-1
				c-0.4-0.2-0.9-0.3-1.3-0.2l-11.5,3.1l-4.9-18.2c-0.1-0.4-0.4-0.8-0.8-1c-0.4-0.2-0.9-0.3-1.3-0.2l-24.7,6.6l-3.5-13.2
				c-0.1-0.4-0.4-0.8-0.8-1c-0.4-0.2-0.9-0.3-1.3-0.2l-2.1,0.6c-0.9-1.4-2.5-2.2-4.2-2.2c-0.4,0-0.9,0.1-1.3,0.2l-4.9,1.3
				c-2.7,0.7-4.3,3.5-3.6,6.2c0,0,0,0,0,0c0.6,2.2,2.6,3.8,5,3.8c0.4,0,0.9-0.1,1.3-0.2l4.9-1.3c2.1-0.6,3.6-2.4,3.8-4.5l0.4-0.1
				l3.5,13.2c0,0,0,0,0,0l0.3,1l5,18.8c0,0,0,0,0,0.1l1.9,7.3l4.9,18.2c0.1,0.4,0.4,0.8,0.8,1c0.3,0.2,0.6,0.2,0.9,0.2
				c0.1,0,0.3,0,0.4-0.1l0.9-0.2c-0.3,1.1-0.3,2.3,0,3.5c0.2,0.6,0.4,1.1,0.7,1.7h-5.9c-0.9,0-1.7,0.8-1.7,1.7s0.8,1.7,1.7,1.7h11.8
				c0,0,0,0,0,0c0,0,0,0,0,0h7.5c0.9,0,1.7-0.8,1.7-1.7s-0.8-1.7-1.7-1.7h-1.6c0.9-1.5,1.2-3.4,0.7-5.2c-0.3-1.2-0.9-2.2-1.8-3.1
				l21.6-5.8c-0.3,1.1-0.3,2.3,0,3.5c0.8,3,3.5,5.1,6.6,5.1c0.6,0,1.2-0.1,1.8-0.2c3.6-1,5.8-4.7,4.8-8.4c-0.3-1.2-0.9-2.2-1.8-3.1
				l2.1-0.6C389.4,156.3,389.9,155.4,389.7,154.4z M318.3,111l-4.9,1.3c-0.1,0-0.3,0.1-0.4,0.1c-0.8,0-1.4-0.5-1.6-1.2c0,0,0,0,0,0
				c-0.2-0.9,0.3-1.8,1.2-2.1l4.9-1.3c0.1,0,0.3-0.1,0.4-0.1c0.8,0,1.5,0.5,1.7,1.3c0,0,0,0,0,0v0
				C319.8,109.8,319.3,110.7,318.3,111z M378.2,155.8l-29.7,8l-2.4-8.9c-0.2-0.9-1.2-1.5-2.1-1.2c-0.9,0.2-1.5,1.2-1.2,2.1l2.4,8.9
				l-3.3,0.9l-4.4-16.5l-1.5-5.6l13.2-3.5l2.7,10c0.2,0.6,0.6,1,1.2,1.2c0.2,0,0.3,0.1,0.5,0.1c0.4,0,0.8-0.1,1.1-0.4l2.2-2l2.9,0.6
				c0.6,0.1,1.2-0.1,1.6-0.5c0.4-0.4,0.6-1,0.4-1.6l-2.7-10l6.6-1.8l2.4,8.9c0.2,0.8,0.9,1.3,1.6,1.3c0.1,0,0.3,0,0.4-0.1
				c0.9-0.2,1.5-1.2,1.2-2.1l-2.4-8.9l3.3-0.9L378.2,155.8z M357.7,145.3l-1-0.2c-0.5-0.1-1.1,0-1.5,0.4l-0.8,0.7l-2-7.3l3.3-0.9
				L357.7,145.3z M345.9,127.3l-1-0.2c-0.5-0.1-1.1,0-1.5,0.4l-0.8,0.7l-2-7.3l3.3-0.9L345.9,127.3z M337.3,121.8l2.7,10
				c0.2,0.6,0.6,1,1.2,1.2c0.2,0,0.3,0.1,0.5,0.1c0.4,0,0.8-0.1,1.1-0.4l2.2-2l2.9,0.6c0.6,0.1,1.2-0.1,1.6-0.5
				c0.4-0.4,0.6-1,0.4-1.6l-2.7-10l6.6-1.8l4.4,16.5l-23.1,6.2l-4.4-16.5L337.3,121.8z M348.6,167.3c1.5,0,2.9,1,3.3,2.5
				c0.5,1.8-0.6,3.7-2.4,4.2c-0.3,0.1-0.6,0.1-0.9,0.1h0c-1.5,0-2.9-1-3.3-2.5c-0.5-1.8,0.6-3.7,2.4-4.2l0,0
				C348.1,167.4,348.3,167.3,348.6,167.3z M381.6,158.5c1.5,0,2.9,1,3.3,2.5c0.5,1.8-0.6,3.7-2.4,4.2c-0.3,0.1-0.6,0.1-0.9,0.1
				c-1.5,0-2.9-1-3.3-2.5c-0.5-1.8,0.6-3.7,2.4-4.2l0,0C381,158.5,381.3,158.5,381.6,158.5z"/>
			<path id="XMLID_296_" class="st4" d="M370.5,146.9c-0.9,0.2-1.5,1.2-1.2,2.1l0.2,0.6c0.2,0.8,0.9,1.3,1.6,1.3
				c0.1,0,0.3,0,0.4-0.1c0.9-0.2,1.5-1.2,1.2-2.1l-0.2-0.6C372.4,147.2,371.4,146.6,370.5,146.9z"/>
			<path id="XMLID_295_" class="st4" d="M344.7,149.5c-0.2-0.9-1.2-1.5-2.1-1.2c-0.9,0.2-1.5,1.2-1.2,2.1l0.2,0.6
				c0.2,0.8,0.9,1.3,1.6,1.3c0.1,0,0.3,0,0.4-0.1c0.9-0.2,1.5-1.2,1.2-2.1L344.7,149.5z"/>
			<path id="XMLID_294_" class="st4" d="M361.9,174.2h-0.7c-0.9,0-1.7,0.8-1.7,1.7c0,0.9,0.8,1.7,1.7,1.7h0.7c0.9,0,1.7-0.8,1.7-1.7
				C363.6,174.9,362.8,174.2,361.9,174.2z"/>
		</g>
	</g>
	<g id="XMLID_272_">
		<g id="XMLID_282_">
			<path id="XMLID_291_" class="st2" d="M180.2,105.2h6.8c1.9,0,3.4,1.5,3.4,3.4v0c0,1.9-1.5,3.4-3.4,3.4h-6.8
				c-1.9,0-3.4-1.5-3.4-3.4v0C176.8,106.8,178.3,105.2,180.2,105.2z"/>
			<polygon id="XMLID_290_" class="st0" points="111.9,118.9 173.4,118.9 171.6,125.7 113.8,125.7 			"/>
			<polygon id="XMLID_289_" class="st2" points="116.5,125.7 168.8,125.7 163.3,146.2 121,142.3 			"/>
			<g id="XMLID_286_">
				<path id="XMLID_288_" class="st2" d="M129,170.1c2.8,0,5.1-2.3,5.1-5.1c0-2.8-2.3-5.1-5.1-5.1c-2.8,0-5.1,2.3-5.1,5.1
					C123.8,167.8,126.1,170.1,129,170.1z"/>
				<path id="XMLID_287_" class="st2" d="M156.4,170.1c2.8,0,5.1-2.3,5.1-5.1c0-2.8-2.3-5.1-5.1-5.1c-2.8,0-5.1,2.3-5.1,5.1
					C151.3,167.8,153.6,170.1,156.4,170.1z"/>
			</g>
			<g id="XMLID_283_">
				<path id="XMLID_285_" class="st0" d="M129,166.7c0.9,0,1.7-0.8,1.7-1.7c0-0.9-0.8-1.7-1.7-1.7c-0.9,0-1.7,0.8-1.7,1.7
					C127.3,165.9,128,166.7,129,166.7z"/>
				<path id="XMLID_284_" class="st0" d="M156.4,166.7c0.9,0,1.7-0.8,1.7-1.7c0-0.9-0.8-1.7-1.7-1.7c-0.9,0-1.7,0.8-1.7,1.7
					C154.7,165.9,155.4,166.7,156.4,166.7z"/>
			</g>
		</g>
		<g id="XMLID_273_">
			<path id="XMLID_275_" class="st4" d="M187,103.5h-6.8c-2.3,0-4.2,1.5-4.9,3.5c-3,0.5-3.9,2.4-4.4,4l-1.6,6.1h-57.4
				c-0.5,0-1,0.2-1.4,0.7c-0.3,0.4-0.4,1-0.3,1.5l1.8,6.8c0.2,0.7,0.9,1.3,1.6,1.3h1.4l4.2,15.8c0,0,0,0,0,0c0,0,0,0.1,0,0.1
				c0,0,0,0.1,0,0.1c0,0,0,0,0,0.1c0,0.1,0.1,0.2,0.2,0.3c0,0,0,0,0,0c0,0,0.1,0.1,0.1,0.1c0,0,0,0,0,0c0,0,0.1,0.1,0.1,0.1
				c0,0,0,0,0,0c0,0,0.1,0,0.1,0.1c0,0,0,0,0,0c0,0,0.1,0,0.1,0.1c0,0,0,0,0,0c0,0,0.1,0.1,0.1,0.1c0,0,0,0,0.1,0c0,0,0.1,0,0.1,0
				c0,0,0,0,0.1,0c0,0,0.1,0,0.1,0c0,0,0,0,0.1,0c0,0,0.1,0,0.1,0c0,0,0,0,0,0c0.1,0,0.1,0,0.2,0l40.2,3.2l-1,3.6h-36.4
				c-0.9,0-1.7,0.8-1.7,1.7s0.8,1.7,1.7,1.7h4.7l-1,3.5c-3.1,0.6-5.5,3.4-5.5,6.7c0,3.8,3.1,6.8,6.8,6.8c0,0,0,0,0,0h8.5
				c0.9,0,1.7-0.8,1.7-1.7s-0.8-1.7-1.7-1.7h-2.6c0.6-1,0.9-2.2,0.9-3.4c0-3-2-5.6-4.7-6.5l1-3.8h21.1l1,3.8
				c-2.7,0.9-4.7,3.5-4.7,6.5c0,3.8,3.1,6.8,6.8,6.8c0,0,0,0,0,0h17.1c0.9,0,1.7-0.8,1.7-1.7s-0.8-1.7-1.7-1.7h-11.2
				c0.6-1,0.9-2.2,0.9-3.4c0-3.3-2.4-6.1-5.5-6.7l-1-3.5h4.7c0,0,0,0,0,0c0.1,0,0.1,0,0.2,0c0,0,0,0,0,0c0,0,0.1,0,0.1,0
				c0,0,0,0,0.1,0c0,0,0.1,0,0.1,0c0,0,0,0,0.1,0c0,0,0.1,0,0.1,0c0,0,0,0,0.1,0c0,0,0.1,0,0.1-0.1c0,0,0,0,0.1,0c0,0,0,0,0.1,0
				c0,0,0,0,0.1,0c0,0,0,0,0.1-0.1c0,0,0,0,0,0c0,0,0,0,0.1-0.1c0,0,0,0,0,0c0,0,0.1-0.1,0.1-0.1c0,0,0,0,0,0c0,0,0.1-0.1,0.1-0.1
				c0,0,0,0,0,0c0,0,0-0.1,0.1-0.1c0,0,0,0,0-0.1c0,0,0,0,0-0.1c0,0,0-0.1,0-0.1c0,0,0,0,0-0.1c0,0,0-0.1,0-0.1c0,0,0,0,0,0l1.8-6.8
				c0,0,0,0,0,0l5.2-19.2h1.4c0.8,0,1.4-0.5,1.6-1.3l1.8-6.8c0.1-0.5,0-1.1-0.3-1.5c-0.3-0.4-0.8-0.7-1.4-0.7h-0.5l1.4-5.2
				c0.2-0.7,0.3-1.3,1.2-1.5c0.7,1.9,2.6,3.3,4.8,3.3h6.8c2.8,0,5.1-2.3,5.1-5.1C192.2,105.8,189.9,103.5,187,103.5z M132.4,165
				c0,1.9-1.5,3.4-3.4,3.4h0c0,0,0,0,0,0c-1.9,0-3.4-1.5-3.4-3.4c0-1.9,1.5-3.4,3.4-3.4c0,0,0,0,0,0c0,0,0,0,0,0
				C130.8,161.6,132.4,163.1,132.4,165z M159.8,165c0,1.9-1.5,3.4-3.4,3.4h0c0,0,0,0,0,0c-1.9,0-3.4-1.5-3.4-3.4
				c0-1.9,1.5-3.4,3.4-3.4c0,0,0,0,0,0c0,0,0,0,0,0C158.3,161.6,159.8,163.1,159.8,165z M165.7,130.8h-19.2c-0.9,0-1.7,0.8-1.7,1.7
				c0,0.9,0.8,1.7,1.7,1.7h18.3l-0.9,3.4h-8.9c-0.9,0-1.7,0.8-1.7,1.7c0,0.9,0.8,1.7,1.7,1.7h8l-0.9,3.3l-39.6-3.2l-3.7-13.8h47.8
				L165.7,130.8z M170.2,124h-55.2l-0.9-3.4h56.5c0,0,0,0,0,0c0,0,0,0,0,0h0.5L170.2,124z M187,110.4h-6.8c-0.9,0-1.7-0.8-1.7-1.7
				c0-0.9,0.8-1.7,1.7-1.7h6.8c0.9,0,1.7,0.8,1.7,1.7C188.7,109.6,188,110.4,187,110.4z"/>
			<path id="XMLID_274_" class="st4" d="M139.8,134.3h1c0.9,0,1.7-0.8,1.7-1.7c0-0.9-0.8-1.7-1.7-1.7h-1c-0.9,0-1.7,0.8-1.7,1.7
				C138.1,133.5,138.9,134.3,139.8,134.3z"/>
		</g>
	</g>
	<g id="XMLID_249_">
		<g id="XMLID_266_">
			<rect id="XMLID_271_" x="60.2" y="237.4" class="st2" width="64.9" height="6.8"/>
			<path id="XMLID_270_" class="st5" d="M74.4,271.5h36.5c5,0,8.7-4.1,9-9l1.4-18.3H64l1.4,18.3C65.7,267.5,69.4,271.5,74.4,271.5z"
				/>
			<g id="XMLID_267_">
				<path id="XMLID_269_" class="st0" d="M82.1,216c2.8,0,5.1-2.3,5.1-5.1c0-2.8-2.3-5.1-5.1-5.1c-2.8,0-5.1,2.3-5.1,5.1
					C77,213.7,79.3,216,82.1,216z"/>
				<path id="XMLID_268_" class="st0" d="M103.3,216c2.8,0,5.1-2.3,5.1-5.1c0-2.8-2.3-5.1-5.1-5.1c-2.8,0-5.1,2.3-5.1,5.1
					C98.1,213.7,100.4,216,103.3,216z"/>
			</g>
		</g>
		<g id="XMLID_250_">
			<path id="XMLID_260_" class="st4" d="M125.1,235.7h-13.4l-5.1-18.9c2.1-1.2,3.5-3.4,3.5-5.9c0-3.8-3.1-6.8-6.8-6.8
				c-3.8,0-6.8,3.1-6.8,6.8c0,3.8,3.1,6.8,6.8,6.8c0,0,0,0,0.1,0l4.8,18h-31l4.8-18c0,0,0,0,0.1,0c3.8,0,6.8-3.1,6.8-6.8
				c0-3.8-3.1-6.8-6.8-6.8c-3.8,0-6.8,3.1-6.8,6.8c0,2.5,1.4,4.8,3.5,5.9l-5.1,18.9H60.2c-0.9,0-1.7,0.8-1.7,1.7v6.8
				c0,0.9,0.8,1.7,1.7,1.7h2.2l1.2,16.7c0.5,6.1,5.1,10.6,10.7,10.6h36.5c5.7,0,10.3-4.6,10.7-10.6l1.2-16.7h2.2
				c0.9,0,1.7-0.8,1.7-1.7v-6.8C126.8,236.5,126,235.7,125.1,235.7z M99.8,210.9c0-1.9,1.5-3.4,3.4-3.4c1.9,0,3.4,1.5,3.4,3.4
				c0,0.9-0.4,1.8-1,2.4l-0.8-2.9c-0.2-0.9-1.2-1.5-2.1-1.2c-0.9,0.2-1.5,1.2-1.2,2.1l0.8,2.9C100.9,213.8,99.8,212.4,99.8,210.9z
				 M78.7,210.9c0-1.9,1.5-3.4,3.4-3.4c1.9,0,3.4,1.5,3.4,3.4c0,1.6-1.1,2.9-2.5,3.3l0.8-2.9c0.2-0.9-0.3-1.8-1.2-2.1
				c-0.9-0.2-1.8,0.3-2.1,1.2l-0.8,2.9C79,212.7,78.7,211.8,78.7,210.9z M118.3,262.4c-0.3,4.3-3.5,7.5-7.3,7.5H74.4
				c-3.9,0-7-3.2-7.3-7.5l-1.2-16.4h53.7L118.3,262.4z M123.4,242.5h-2H64h-2v-3.4h13c0,0,0,0,0,0c0,0,0,0,0,0h35.4c0,0,0,0,0,0
				c0,0,0,0,0,0h13L123.4,242.5L123.4,242.5z"/>
			<path id="XMLID_259_" class="st4" d="M75.6,266.4c0.9,0,1.7-0.8,1.7-1.7v-13.7c0-0.9-0.8-1.7-1.7-1.7c-0.9,0-1.7,0.8-1.7,1.7
				v13.7C73.9,265.7,74.7,266.4,75.6,266.4z"/>
			<path id="XMLID_258_" class="st4" d="M101.2,266.4c0.9,0,1.7-0.8,1.7-1.7v-13.7c0-0.9-0.8-1.7-1.7-1.7c-0.9,0-1.7,0.8-1.7,1.7
				v13.7C99.5,265.7,100.3,266.4,101.2,266.4z"/>
			<path id="XMLID_257_" class="st4" d="M109.8,253.6c0.9,0,1.7-0.8,1.7-1.7v-0.9c0-0.9-0.8-1.7-1.7-1.7c-0.9,0-1.7,0.8-1.7,1.7v0.9
				C108.1,252.9,108.8,253.6,109.8,253.6z"/>
			<path id="XMLID_256_" class="st4" d="M109.8,266.4c0.9,0,1.7-0.8,1.7-1.7v-6.8c0-0.9-0.8-1.7-1.7-1.7c-0.9,0-1.7,0.8-1.7,1.7v6.8
				C108.1,265.7,108.8,266.4,109.8,266.4z"/>
			<path id="XMLID_255_" class="st4" d="M109.7,282.5H75.6c-0.9,0-1.7,0.8-1.7,1.7s0.8,1.7,1.7,1.7h34.1c0.9,0,1.7-0.8,1.7-1.7
				S110.7,282.5,109.7,282.5z"/>
			<path id="XMLID_254_" class="st4" d="M92.7,266.4c0.9,0,1.7-0.8,1.7-1.7v-1.1c0-0.9-0.8-1.7-1.7-1.7c-0.9,0-1.7,0.8-1.7,1.7v1.1
				C91,265.7,91.7,266.4,92.7,266.4z"/>
			<path id="XMLID_253_" class="st4" d="M84.1,253.8c0.9,0,1.7-0.8,1.7-1.7v-1c0-0.9-0.8-1.7-1.7-1.7c-0.9,0-1.7,0.8-1.7,1.7v1
				C82.4,253,83.2,253.8,84.1,253.8z"/>
			<path id="XMLID_252_" class="st4" d="M92.7,259.6c0.9,0,1.7-0.8,1.7-1.7v-6.8c0-0.9-0.8-1.7-1.7-1.7c-0.9,0-1.7,0.8-1.7,1.7v6.8
				C91,258.8,91.7,259.6,92.7,259.6z"/>
			<path id="XMLID_251_" class="st4" d="M84.1,266.4c0.9,0,1.7-0.8,1.7-1.7v-6.8c0-0.9-0.8-1.7-1.7-1.7c-0.9,0-1.7,0.8-1.7,1.7v6.8
				C82.4,265.7,83.2,266.4,84.1,266.4z"/>
		</g>
	</g>
	<g id="XMLID_234_">
		<g id="XMLID_246_">
			<path id="XMLID_248_" class="st5" d="M217.6,369.1c12.4,0,17.7-14.5,32.4-14.5c14.8,0,20.1,14.5,32.4,14.5
				c0,40.1-10.1,51.1-32.4,64C227.6,420.1,217.6,409.1,217.6,369.1z"/>
			<path id="XMLID_247_" class="st0" d="M267.7,375.4L267.7,375.4c1.5,1.5,1.5,3.9,0,5.4l-21.7,21.7l0,0v0l-0.1,0.1l0,0l-0.1,0.1
				l0,0l-0.1,0.1l0,0l-0.1,0.1v0l-0.1,0.1l0,0l-0.1,0.1l-0.1,0.1l-0.1,0.1l0,0l-0.1,0.1l-0.1,0l-0.1,0l0,0l-0.1,0v0l-0.1,0l0,0
				l-0.1,0l-0.1,0v0l-0.1,0l-0.1,0l0,0l-0.1,0l0,0l-0.1,0v0l-0.1,0l-0.1,0l-0.1,0l0,0l-0.1,0l-0.1,0l-0.1,0v0l-0.1,0l-0.1,0l-0.1,0
				v0l-0.1,0l0,0l-0.1,0v0l-0.1,0l-0.1,0l-0.1,0l-0.1,0v0l-0.1,0l0,0l-0.1,0v0l-0.1,0l-0.1,0l-0.1,0v0l-0.1,0l-0.1,0l-0.1,0l0,0
				l-0.1,0l-0.1,0l-0.1,0v0l-0.1,0l0,0l-0.1,0l0,0l-0.1,0l-0.1,0v0l-0.1,0l-0.1,0l0,0l-0.1,0l-0.1,0l0,0l-0.1,0l-0.1,0l-0.1-0.1
				L241,403l-0.1-0.1l-0.1-0.1l-0.1-0.1l-0.1-0.1l-0.1-0.1l-0.1-0.1l-0.1-0.1l-8.1-8.1c-1.5-1.5-1.5-3.9,0-5.4l0,0
				c1.5-1.5,3.9-1.5,5.4,0l5.4,5.4l19-19C263.7,373.9,266.2,373.9,267.7,375.4L267.7,375.4z"/>
		</g>
		<g id="XMLID_235_">
			<path id="XMLID_243_" class="st4" d="M282.4,367.3c-5.3,0-9.4-3.1-13.6-6.4c-4.9-3.8-10.5-8.1-18.8-8.1c-8.3,0-13.9,4.3-18.8,8.1
				c-4.3,3.3-8.3,6.4-13.6,6.4c-0.9,0-1.7,0.8-1.7,1.7c0,19.9,2.5,33.2,8,43c5.5,9.8,13.8,15.8,25.2,22.5c0.3,0.2,0.6,0.2,0.9,0.2
				c0.3,0,0.6-0.1,0.9-0.2c11.5-6.6,19.7-12.7,25.2-22.5c5.6-9.8,8-23.1,8-43C284.1,368.1,283.4,367.3,282.4,367.3z M250,431.1
				c-20.6-12-30.4-22.3-30.7-60.4c5.6-0.6,9.9-3.9,14-7c4.7-3.6,9.6-7.4,16.7-7.4c7.1,0,12,3.8,16.7,7.4c4.1,3.2,8.4,6.5,14,7
				C280.4,408.7,270.6,419.1,250,431.1z"/>
			<path id="XMLID_242_" class="st4" d="M229.8,372.3c-0.4-0.8-1.5-1.2-2.3-0.7c-0.2,0.1-0.4,0.2-0.6,0.3c-0.8,0.4-1.2,1.4-0.8,2.3
				c0.3,0.6,0.9,1,1.5,1c0.3,0,0.5-0.1,0.8-0.2c0.2-0.1,0.5-0.2,0.7-0.4C230,374.2,230.3,373.2,229.8,372.3z"/>
			<path id="XMLID_241_" class="st4" d="M274.9,385.7c0.1,0,0.1,0,0.2,0c0.9,0,1.6-0.7,1.7-1.6c0-0.2,0-0.4,0.1-0.7
				c0.1-0.9-0.6-1.8-1.6-1.8c-0.9-0.1-1.8,0.6-1.8,1.6c0,0.2,0,0.4-0.1,0.6C273.3,384.8,274,385.6,274.9,385.7z"/>
			<path id="XMLID_240_" class="st4" d="M233.2,371.7c0.3,0,0.7-0.1,1-0.3c1-0.7,2-1.4,2.9-2.2c4.4-3.3,8.1-6.2,12.9-6.2
				c0.9,0,1.7-0.8,1.7-1.7c0-0.9-0.8-1.7-1.7-1.7c-5.9,0-10.3,3.3-15,6.9c-0.9,0.7-1.9,1.4-2.8,2.1c-0.8,0.6-0.9,1.6-0.4,2.4
				C232.2,371.5,232.7,371.7,233.2,371.7z"/>
			<path id="XMLID_239_" class="st4" d="M250,423.1c-4.4-2.7-9.6-6.3-13.6-11c-0.6-0.7-1.7-0.8-2.4-0.2c-0.7,0.6-0.8,1.7-0.2,2.4
				c4.5,5.4,10.6,9.3,15.3,12.2c0,0,0,0,0,0c0,0,0.1,0,0.1,0.1c0,0,0.1,0,0.1,0c0,0,0.1,0,0.1,0c0,0,0.1,0,0.1,0c0,0,0.1,0,0.1,0
				c0,0,0.1,0,0.1,0c0.1,0,0.1,0,0.2,0c0,0,0,0,0.1,0c0,0,0,0,0,0h0c0,0,0,0,0.1,0c0.1,0,0.1,0,0.2,0c0,0,0.1,0,0.1,0
				c0,0,0.1,0,0.1,0c0,0,0.1,0,0.1,0c0,0,0.1,0,0.1,0c0,0,0.1,0,0.1,0c0,0,0.1,0,0.1-0.1c0,0,0,0,0,0c4.7-2.9,10.8-6.9,15.3-12.2
				c5.2-6.1,8.4-14.4,10-25.3c0.1-0.9-0.5-1.8-1.5-1.9c-0.9-0.1-1.8,0.5-1.9,1.5c-1.4,10.2-4.5,18-9.2,23.6
				C259.6,416.8,254.4,420.4,250,423.1z"/>
			<path id="XMLID_236_" class="st4" d="M261,374.2L243.2,392l-4.2-4.2c-1-1-2.4-1.6-3.9-1.6c-1.5,0-2.9,0.6-3.9,1.6
				c-2.2,2.2-2.2,5.7,0,7.8l8.2,8.2l0.1,0.1c0,0,0,0,0,0l0.1,0.1c0,0,0,0,0,0l0.1,0.1c0,0,0,0,0,0l0.1,0.1c0,0,0,0,0,0l0.1,0.1
				c0,0,0,0,0,0l0.1,0.1c0,0,0,0,0,0l0.1,0.1c0,0,0,0,0,0l0.1,0.1c0,0,0,0,0,0l0.1,0.1c0,0,0,0,0,0l0.1,0c0,0,0,0,0,0l0.1,0
				c0,0,0,0,0,0l0.1,0c0,0,0,0,0,0l0.1,0c0,0,0,0,0,0l0.1,0c0,0,0,0,0,0l0,0c0,0,0.1,0,0.1,0l0.1,0c0,0,0,0,0,0l0.1,0c0,0,0,0,0,0
				l0.1,0c0,0,0,0,0,0l0,0c0,0,0.1,0,0.1,0l0.1,0c0,0,0,0,0,0l0.1,0c0,0,0,0,0,0l0.1,0c0,0,0,0,0,0l0.1,0c0,0,0,0,0,0l0.1,0
				c0,0,0,0,0.1,0l0,0c0,0,0.1,0,0.1,0l0.1,0c0,0,0,0,0,0l0.1,0c0,0,0,0,0,0l0,0c0,0,0.1,0,0.1,0l0.1,0c0,0,0,0,0.1,0l0,0
				c0,0,0.1,0,0.1,0l0.1,0c0,0,0,0,0,0l0.1,0c0,0,0,0,0,0c0,0,0,0,0,0l0.1,0c0,0,0,0,0,0l0.1,0c0,0,0.1,0,0.1,0l0,0c0,0,0,0,0.1,0
				l0.1,0c0,0,0.1,0,0.1,0l0,0c0,0,0,0,0,0l0.1,0c0,0,0,0,0,0l0.1,0c0,0,0.1,0,0.1,0l0,0c0,0,0,0,0.1,0l0.1,0c0,0,0,0,0,0l0.1,0
				c0,0,0,0,0,0l0.1,0c0,0,0,0,0,0l0.1,0c0,0,0,0,0,0l0.1,0c0,0,0.1,0,0.1,0l0,0c0,0,0,0,0,0l0.1,0c0,0,0,0,0,0l0.1,0c0,0,0,0,0,0
				l0.1,0c0,0,0.1,0,0.1,0l0,0c0,0,0,0,0,0l0.1,0c0,0,0,0,0,0l0.1,0c0,0,0.1,0,0.1,0l0,0c0,0,0,0,0,0l0.1,0c0,0,0,0,0,0l0.1,0
				c0,0,0,0,0,0l0.1-0.1c0,0,0,0,0,0l0.1-0.1c0,0,0,0,0,0l0.1-0.1c0,0,0,0,0,0l0.1-0.1c0,0,0,0,0,0l0.1-0.1c0,0,0,0,0.1,0l0,0
				c0,0,0,0,0,0l0.1-0.1c0,0,0,0,0,0l0.1-0.1c0,0,0,0,0,0l0.1-0.1c0,0,0,0,0,0l21.7-21.7c2.2-2.2,2.2-5.7,0-7.8
				c-1-1-2.4-1.6-3.9-1.6C263.5,372.6,262.1,373.1,261,374.2z M266.4,379.6l-21.7,21.7c0,0,0,0,0,0l-0.2,0.1c0,0,0,0,0,0l-0.2,0.1
				l-0.3,0.1c0,0,0,0,0,0l-0.2,0.1c0,0,0,0,0,0l-0.3,0.1c0,0,0,0,0,0l-0.1,0c0,0,0,0,0,0l-0.1,0c0,0,0,0,0,0l-0.1,0l-0.1,0l0,0
				c0,0,0,0,0,0l-0.1,0c0,0,0,0,0,0l-0.1,0c0,0,0,0,0,0l-0.3-0.1l0,0l-0.2-0.1l-0.3-0.2l-0.3-0.2l-8.2-8.2c-0.8-0.8-0.8-2.2,0-3
				c0.4-0.4,0.9-0.6,1.5-0.6c0.6,0,1.1,0.2,1.5,0.6l5.4,5.4c0.3,0.3,0.8,0.5,1.2,0.5c0.5,0,0.9-0.2,1.2-0.5l19-19
				c0.4-0.4,0.9-0.6,1.5-0.6c0.6,0,1.1,0.2,1.5,0.6C267.3,377.4,267.3,378.8,266.4,379.6z"/>
		</g>
	</g>
	<g id="XMLID_217_">
		<g id="XMLID_228_">
			<path id="XMLID_233_" class="st5" d="M250,135.5c-12.7-12.8-32.4-27.2-32.4-46.1c0-17.9,14.5-32.4,32.4-32.4
				c17.9,0,32.4,14.5,32.4,32.4C282.4,108.3,262.7,122.6,250,135.5z"/>
			<path id="XMLID_232_" class="st2" d="M250,109.9c11.3,0,20.5-9.2,20.5-20.5c0-11.3-9.2-20.5-20.5-20.5
				c-11.3,0-20.5,9.2-20.5,20.5C229.5,100.7,238.7,109.9,250,109.9z"/>
			<g id="XMLID_229_">
				<path id="XMLID_231_" class="st0" d="M250,63.6c-5.2,0-9.8,3.2-11.5,8.8c-0.8,2.7,0.4,7.9,0.8,9.9c1.1,6.4,1.9,6,5.3,8.4
					c3.6,2.1,7.2,2.1,10.8,0c3.4-2.3,4.3-1.9,5.3-8.4c0.3-2,1.6-7.1,0.8-9.9C259.8,66.8,255.2,63.6,250,63.6z"/>
				<path id="XMLID_230_" class="st0" d="M259.2,87.7c4.2,2.1,7.6,5.7,9.6,10c-3.2,7.2-10.4,12.2-18.7,12.2c-8.3,0-15.5-5-18.7-12.2
					c1.9-4.3,5.3-7.9,9.6-10c0.8,1.2,1.9,1.7,3.8,2.9c3.6,2.1,7.2,2.1,10.8,0C257.3,89.4,258.4,88.9,259.2,87.7z"/>
			</g>
		</g>
		<g id="XMLID_218_">
			<path id="XMLID_225_" class="st4" d="M267.1,133.7l-12.9,0c1.4-1.3,2.9-2.7,4.4-4.1c12-11.2,25.6-24,25.6-40.2
				c0-9.1-3.5-17.7-10-24.1c-6.4-6.4-15-10-24.1-10s-17.7,3.6-24.1,10c-6.4,6.4-10,15-10,24.1c0,16.3,13.6,29,25.6,40.2
				c1.5,1.4,3,2.8,4.4,4.1l-12.9,0c-0.9,0-1.7,0.8-1.7,1.7s0.8,1.7,1.7,1.7l17.1,0c0,0,0,0,0,0s0,0,0,0l17.1,0
				c0.9,0,1.7-0.8,1.7-1.7C268.8,134.5,268,133.7,267.1,133.7z M250,133c-2-1.9-4-3.9-6.2-5.9c-11.5-10.8-24.5-23-24.5-37.7
				c0-8.2,3.2-15.9,9-21.7c5.8-5.8,13.5-9,21.7-9c8.2,0,15.9,3.2,21.7,9c5.8,5.8,9,13.5,9,21.7c0,14.8-13,27-24.5,37.7
				C254,129.2,252,131.1,250,133z"/>
			<path id="XMLID_224_" class="st4" d="M265.7,79.3c0.3,0.5,0.9,0.8,1.4,0.8c0.3,0,0.6-0.1,0.9-0.3c0.8-0.5,1-1.6,0.5-2.4
				c-0.1-0.2-0.3-0.4-0.4-0.6c-0.5-0.8-1.6-1-2.4-0.4c-0.8,0.5-1,1.6-0.4,2.4C265.5,78.9,265.6,79.1,265.7,79.3z"/>
			<path id="XMLID_220_" class="st4" d="M270.3,98.4c0.1-0.2,0.1-0.4,0.1-0.6c1.1-2.7,1.7-5.5,1.7-8.5c0-2.3-0.4-4.6-1.1-6.9
				c-0.3-0.9-1.3-1.4-2.2-1.1c-0.9,0.3-1.4,1.3-1.1,2.2c0.6,1.9,0.9,3.8,0.9,5.8c0,1.4-0.1,2.7-0.4,4c-1.8-2.6-4.1-4.8-6.9-6.4
				c0.4-1.1,0.7-2.5,1-4.4c0.1-0.3,0.1-0.7,0.2-1.2c0.5-2.7,1.3-6.8,0.5-9.4c-1.8-6.1-7-10-13.1-10c-5.9,0-10.9,3.7-12.9,9.4
				c-3.4,2.4-6.1,5.8-7.7,9.7c-0.4,0.9,0.1,1.9,0.9,2.2c0.2,0.1,0.4,0.1,0.6,0.1c0.7,0,1.3-0.4,1.6-1.1c0.9-2.3,2.3-4.4,4.1-6.1
				c0.1,1.8,0.5,3.7,0.8,5.2c0.1,0.5,0.2,0.9,0.2,1.2c0.3,1.9,0.6,3.4,1,4.4c-3.9,2.3-7,5.9-8.9,10c-0.2,0.4-0.2,0.9,0,1.4
				c3.6,8,11.5,13.2,20.3,13.2c0,0,0,0,0,0C258.8,111.6,266.7,106.4,270.3,98.4z M240.1,72.9c1.4-4.7,5.2-7.6,9.9-7.6
				c4.7,0,8.5,2.9,9.9,7.6c0.6,1.9-0.2,5.7-0.6,7.8c-0.1,0.5-0.2,0.9-0.2,1.3c-0.8,4.8-1.2,5-3.3,6.4c-0.4,0.2-0.8,0.5-1.3,0.8
				c-1.5,0.9-3,1.3-4.5,1.3c-1.5,0-3-0.4-4.5-1.3c-0.5-0.3-0.9-0.6-1.3-0.8c-2.1-1.3-2.5-1.6-3.3-6.4c-0.1-0.4-0.1-0.8-0.2-1.3
				c-0.1-0.7-0.3-1.5-0.4-2.4c1.9-0.3,4.9-0.9,7.3-1.9l0.4,0.9c0.1,0.2,0.1,0.3,0.2,0.4c0.2,0.6,0.6,1.4,1.5,1.7
				c0.2,0.1,0.4,0.1,0.7,0.1c0.5,0,0.9-0.2,1.5-0.3c0.1,0,0.3-0.1,0.5-0.2c1.3-0.4,3.1-1.2,4.6-2.8c0.7-0.7,0.6-1.8,0-2.4
				c-0.7-0.7-1.8-0.6-2.4,0c-1,1-2.3,1.6-3.2,1.9c0,0-0.1,0-0.1,0l-1-2.5c-0.2-0.5-0.6-0.8-1.1-1c-0.5-0.1-1-0.1-1.4,0.2
				c-1.7,1.1-5.2,1.9-7.5,2.2C239.9,74.1,240,73.4,240.1,72.9z M250,108.1c-7.2,0-13.7-4.1-16.8-10.5c1.6-3.3,4.2-6,7.3-7.9
				c0.5,0.5,1.2,0.9,1.9,1.4c0.4,0.2,0.8,0.5,1.2,0.8l0.1,0.1c2,1.2,4.1,1.8,6.3,1.8h0c2.1,0,4.2-0.6,6.3-1.8l0.1-0.1
				c0.4-0.3,0.9-0.6,1.2-0.8c0.8-0.5,1.4-0.9,1.9-1.4c3.1,1.9,5.7,4.6,7.3,7.9C263.7,104.1,257.2,108.1,250,108.1z"/>
			<path id="XMLID_219_" class="st4" d="M231.2,87.5c0-0.2,0-0.4,0.1-0.6c0.1-0.9-0.5-1.8-1.5-1.9c-0.9-0.1-1.8,0.5-1.9,1.5
				c0,0.2-0.1,0.5-0.1,0.7c-0.1,0.9,0.6,1.8,1.5,1.9c0.1,0,0.1,0,0.2,0C230.4,89.1,231.1,88.4,231.2,87.5z"/>
		</g>
	</g>
	<g id="XMLID_1_">
		<g id="XMLID_213_">
			<path id="XMLID_216_" class="st0" d="M108.7,324.2L108.7,324.2c10.8-18.7,34.9-25.2,53.6-14.4l0,0c18.7,10.8,25.2,34.9,14.4,53.6
				l0,0c-10.8,18.7-34.9,25.2-53.6,14.4l0,0C104.3,367,97.9,342.9,108.7,324.2z"/>
			<path id="XMLID_215_" class="st1" d="M150.2,335.8h-1.5c1.2-5.6,3-12.3-5.5-13.1c-1-0.1-1.9,0.6-2,1.6c-1,10.7-5.1,13.3-7.3,13.6
				v13.6c0,3.8,2.2,6.5,6.4,6.5h10.6h7.5c1,0,1.7-0.8,1.8-1.8l2-17.5c0.2-1.5-0.5-2.8-2.3-2.8H150.2L150.2,335.8z"/>
			<rect id="XMLID_214_" x="123.1" y="335.8" class="st2" width="10.9" height="22.2"/>
		</g>
		<g id="XMLID_201_">
			<path id="XMLID_210_" class="st4" d="M182.2,333.2c-2.8-10.6-9.6-19.4-19-24.9c-6.2-3.6-13.2-5.5-20.4-5.5
				c-14.7,0-28.3,7.8-35.6,20.5c-5.5,9.4-6.9,20.5-4,31.1c2.8,10.6,9.6,19.4,19,24.9c1.3,0.8,2.7,1.4,4.1,2h-0.6
				c-0.9,0-1.7,0.8-1.7,1.7c0,0.9,0.8,1.7,1.7,1.7h34.1c0.9,0,1.7-0.8,1.7-1.7c0-0.9-0.8-1.7-1.7-1.7H159c7.9-3.4,14.7-9.4,19.2-17
				C183.6,354.8,185,343.8,182.2,333.2z M175.2,362.6c-6.7,11.6-19.2,18.8-32.6,18.8c-6.5,0-13-1.7-18.7-5
				C105.9,366,99.8,343,110.1,325c6.7-11.6,19.2-18.8,32.6-18.8c6.5,0,13,1.7,18.7,5c8.7,5,14.9,13.1,17.5,22.8
				C181.5,343.8,180.2,353.9,175.2,362.6z"/>
			<path id="XMLID_209_" class="st4" d="M134.7,373.5c-10.6-2.8-18.9-11.2-21.7-21.7c-0.2-0.9-1.2-1.5-2.1-1.2
				c-0.9,0.2-1.5,1.2-1.2,2.1c3.1,11.7,12.4,21,24.1,24.1c0.1,0,0.3,0.1,0.4,0.1c0.8,0,1.4-0.5,1.6-1.3
				C136.2,374.7,135.6,373.7,134.7,373.5z"/>
			<path id="XMLID_208_" class="st4" d="M151.5,310.8c-0.9-0.2-1.8,0.3-2.1,1.2c-0.2,0.9,0.3,1.8,1.2,2.1
				c10.6,2.8,18.9,11.2,21.7,21.7c0.2,0.8,0.9,1.3,1.6,1.3c0.1,0,0.3,0,0.4-0.1c0.9-0.2,1.5-1.2,1.2-2.1
				C172.5,323.2,163.3,314,151.5,310.8z"/>
			<path id="XMLID_207_" class="st4" d="M141.6,374.5c-0.4,0-0.9,0-1.3-0.1c-0.9-0.1-1.8,0.6-1.8,1.6c-0.1,0.9,0.6,1.8,1.6,1.8
				c0.5,0,0.9,0.1,1.4,0.1c0,0,0,0,0.1,0c0.9,0,1.7-0.7,1.7-1.6C143.3,375.3,142.6,374.5,141.6,374.5z"/>
			<path id="XMLID_206_" class="st4" d="M143.7,313.1c0.4,0,0.9,0,1.3,0.1c0,0,0.1,0,0.1,0c0.9,0,1.6-0.7,1.7-1.6
				c0.1-0.9-0.6-1.8-1.6-1.8c-0.5,0-0.9-0.1-1.4-0.1c-0.9,0-1.7,0.7-1.8,1.6C142,312.3,142.7,313.1,143.7,313.1z"/>
			<path id="XMLID_202_" class="st4" d="M159.9,334.1h-9.1c0.7-3.5,1.2-7.1-0.8-9.9c-1.3-1.8-3.6-2.9-6.7-3.2c-0.1,0-0.2,0-0.3,0
				c-1.8,0-3.3,1.4-3.5,3.2c-0.6,6.1-2.2,9.6-3.9,11.1c-0.2-0.7-0.9-1.2-1.6-1.2h-10.9c-0.9,0-1.7,0.8-1.7,1.7V358
				c0,0.9,0.8,1.7,1.7,1.7H134c0.8,0,1.5-0.5,1.7-1.3c1.3,0.8,2.9,1.3,4.7,1.3h18c1.8,0,3.3-1.4,3.5-3.4l2-17.5
				c0.2-1.4-0.2-2.6-1-3.5C162.4,334.8,161.5,334.1,159.9,334.1z M132.3,356.3h-7.4v-12h3.7c0.9,0,1.7-0.8,1.7-1.7
				c0-0.9-0.8-1.7-1.7-1.7h-3.7v-3.4h7.4v0.5v13.6V356.3z M160.5,338.5l-2,17.5c0,0.2-0.1,0.3-0.1,0.3c0,0,0,0,0,0h-18
				c-4.1,0-4.7-3-4.7-4.8v-12.3c1.1-0.5,2.5-1.4,3.8-3.2c1.9-2.6,3-6.5,3.5-11.5c0,0,0-0.1,0.1-0.1c2.1,0.2,3.5,0.8,4.3,1.8
				c1.4,1.9,0.6,5.5-0.2,8.6l-0.1,0.5c-0.1,0.5,0,1,0.3,1.4c0.3,0.4,0.8,0.6,1.3,0.6h11.2c0.2,0,0.4,0,0.5,0.1
				C160.5,337.7,160.5,338,160.5,338.5z"/>
		</g>
	</g>
	<g id="XMLID_157_">
		<g id="XMLID_175_">
			<polygon id="XMLID_183_" class="st5" points="381.7,270.6 407.3,270.6 407.3,263.8 407.3,239.9 407.3,233.1 407.3,222.8 
				400.5,222.8 383.4,222.8 363,222.8 359.5,222.8 359.5,229.6 359.5,236.5 359.5,243 359.5,259.7 359.5,270.6 			"/>
			<polygon id="XMLID_182_" class="st2" points="363,222.8 383.4,222.8 376.6,216 373.2,212.6 			"/>
			<polygon id="XMLID_181_" class="st0" points="376.6,216 383.4,222.8 400.5,222.8 400.5,216 			"/>
			<path id="XMLID_180_" class="st2" d="M407.3,233.1v6.8v23.9v6.8h8.5c0-3.8,3.1-6.8,6.8-6.8c3.8,0,6.8,3.1,6.8,6.8h8.5v-15.4
				h-15.4h-6.8v-15.4h12.5h1.1l0-3.4c0-1.9-1.5-3.4-3.4-3.4H407.3z"/>
			<g id="XMLID_176_">
				<path id="XMLID_179_" class="st1" d="M415.9,239.9v15.4h22.2v-6.8c0-2.3-1-4.5-2.5-6c-1.5-1.5-3.7-2.5-6-2.5H415.9L415.9,239.9z
					"/>
				<path id="XMLID_178_" class="st2" d="M429.5,270.6c0-3.8-3.1-6.8-6.8-6.8c-3.8,0-6.8,3.1-6.8,6.8c0,3.8,3,6.8,6.8,6.8h0.1
					C426.5,277.4,429.5,274.4,429.5,270.6z"/>
				<path id="XMLID_177_" class="st2" d="M374.9,277.4c3.8,0,6.8-3.1,6.8-6.8c0-3.1-2-5.7-4.8-6.5c-0.6-0.2-1.3-0.3-2-0.3
					c-3.8,0-6.8,3.1-6.8,6.8C368.1,274.4,371.1,277.4,374.9,277.4L374.9,277.4z"/>
			</g>
		</g>
		<g id="XMLID_161_">
			<path id="XMLID_164_" class="st4" d="M431.2,238.3v-1.9c0-2.8-2.3-5.1-5.1-5.1H409v-8.5c0-0.9-0.8-1.7-1.7-1.7h-5.1V216
				c0-0.9-0.8-1.7-1.7-1.7h-23.2l-2.9-2.9c-0.7-0.7-1.7-0.7-2.4,0l-9.7,9.7h-2.7c-0.9,0-1.7,0.8-1.7,1.7v47.8c0,0.9,0.8,1.7,1.7,1.7
				h7c0.3,1.3,0.8,2.4,1.5,3.4h-3.4c-0.9,0-1.7,0.8-1.7,1.7s0.8,1.7,1.7,1.7h10.2l0,0h0c4.1,0,7.6-2.9,8.4-6.8h24.1h7
				c0.3,1.3,0.8,2.4,1.5,3.4h-3.4c-0.9,0-1.7,0.8-1.7,1.7s0.8,1.7,1.7,1.7h10.2h0l0,0c4.1,0,7.6-2.9,8.4-6.8h7
				c0.9,0,1.7-0.8,1.7-1.7v-15.4v-6.8C439.8,243.3,436.1,239.1,431.2,238.3z M398.8,217.7v3.4h-14.7l-3.4-3.4L398.8,217.7
				L398.8,217.7z M373.2,215l6.1,6.1h-12.2L373.2,215z M374.9,275.7c-2.8,0-5.1-2.3-5.1-5.1c0-2.8,2.3-5.1,5.1-5.1
				c2.8,0,5.1,2.3,5.1,5.1C380,273.4,377.7,275.7,374.9,275.7z M405.6,233.1v29H394c-0.9,0-1.7,0.8-1.7,1.7s0.8,1.7,1.7,1.7h11.6
				v3.4h-22.4c-0.8-3.9-4.2-6.8-8.4-6.8c-4.1,0-7.6,2.9-8.4,6.8h-5.3v-27.3h6.8c0.9,0,1.7-0.8,1.7-1.7s-0.8-1.7-1.7-1.7h-6.8v-3.4
				h20.5c0.9,0,1.7-0.8,1.7-1.7c0-0.9-0.8-1.7-1.7-1.7h-20.5v-6.8h44.4V233.1z M414.3,268.9H409v-3.4h6.8
				C415.1,266.5,414.6,267.6,414.3,268.9z M422.7,275.7c-2.8,0-5.1-2.3-5.1-5.1c0-2.8,2.3-5.1,5.1-5.1c2.8,0,5.1,2.3,5.1,5.1
				C427.8,273.4,425.5,275.7,422.7,275.7z M436.3,268.9h-5.3c-0.8-3.9-4.2-6.8-8.4-6.8l0,0h0H409v-27.3h17.1c0.9,0,1.7,0.8,1.7,1.7
				v1.7h-11.9c-0.9,0-1.7,0.8-1.7,1.7v15.4c0,0.9,0.8,1.7,1.7,1.7h20.5V268.9z M421,241.6v11.9h-3.4v-11.9H421z M436.3,253.5h-11.9
				v-11.9h5.1c3.8,0,6.8,3.1,6.8,6.8V253.5z"/>
			<path id="XMLID_163_" class="st4" d="M387.3,265.5h1.1c0.9,0,1.7-0.8,1.7-1.7s-0.8-1.7-1.7-1.7h-1.1c-0.9,0-1.7,0.8-1.7,1.7
				S386.4,265.5,387.3,265.5z"/>
			<path id="XMLID_162_" class="st4" d="M387.3,234.8h1.1c0.9,0,1.7-0.8,1.7-1.7c0-0.9-0.8-1.7-1.7-1.7h-1.1c-0.9,0-1.7,0.8-1.7,1.7
				C385.6,234,386.4,234.8,387.3,234.8z"/>
		</g>
		<g id="XMLID_158_">
			<path id="XMLID_160_" class="st0" d="M374.9,273.2c1.4,0,2.6-1.1,2.6-2.6c0-1.4-1.1-2.6-2.6-2.6c-1.4,0-2.6,1.2-2.6,2.6
				C372.3,272,373.5,273.2,374.9,273.2z"/>
			<path id="XMLID_159_" class="st0" d="M422.7,273.2c1.4,0,2.6-1.1,2.6-2.6c0-1.4-1.1-2.6-2.6-2.6c-1.4,0-2.6,1.2-2.6,2.6
				C420.1,272,421.3,273.2,422.7,273.2z"/>
		</g>
	</g>
	<g id="XMLID_117_">
		<g id="XMLID_130_">
			<g id="XMLID_134_">
				<path id="XMLID_136_" class="st5" d="M329,327.1c7.4-6.5,32.2-6.5,39.6,0c0-0.2,0.2-1.9,0.2-2.1c0.1-2,0-3.9-0.4-5.4
					c-2.8-9.5-10.6-15-19.6-15c-8.9,0-16.7,5.5-19.6,15c-0.4,1.4-0.5,3.3-0.4,5.2C328.8,325.1,329,326.9,329,327.1z"/>
				<path id="XMLID_135_" class="st5" d="M368.6,327.1c-1.5-1.3-3.8-2.4-6.5-3.2c-10.4-3-27.2-2-33.1,3.2c-1.3,1.2-2.1,2.5-2.1,4.1
					h2.6H368h2.6C370.7,329.6,369.9,328.3,368.6,327.1z"/>
			</g>
			<path id="XMLID_133_" class="st1" d="M368,331.2h-38.5c0.4,2.8,0.7,3.7,1,5.2c0.7,4.5,1.4,7,2.3,8.7c1.4,2.5,3.3,3.2,6.7,5.6
				c6.1,3.5,12.3,3.5,18.4,0c3.5-2.4,5.4-3.1,6.7-5.6c0.9-1.7,1.6-4.2,2.3-8.7C367.3,334.9,367.6,334,368,331.2z"/>
			<path id="XMLID_132_" class="st2" d="M358,350.6c-6.1,3.5-12.3,3.5-18.4,0c-3.5-2.4-5.4-3.1-6.7-5.6c-11.3,5.8-19,17.6-19,31.2
				v6.8h12.8v-10.2l8.5-6.8h13.7h13.7l8.5,6.8v10.2h12.8v-6.8c0-13.6-7.7-25.4-19-31.1C363.4,347.6,361.5,348.3,358,350.6z"/>
			<polygon id="XMLID_131_" class="st0" points="326.6,372.8 326.6,383.1 371,383.1 371,372.8 362.5,366 335.2,366 			"/>
		</g>
		<g id="XMLID_118_">
			<path id="XMLID_129_" class="st4" d="M325.7,360.3c0.3,0.2,0.7,0.4,1.1,0.4c0.5,0,1-0.2,1.3-0.7c0.2-0.2,0.4-0.5,0.6-0.7
				c0.6-0.7,0.5-1.8-0.2-2.4c-0.7-0.6-1.8-0.5-2.4,0.2c-0.2,0.3-0.5,0.6-0.7,0.8C324.8,358.6,324.9,359.7,325.7,360.3z"/>
			<path id="XMLID_128_" class="st4" d="M348.8,313.1c0.3,0,0.6,0,0.9,0c0,0,0.1,0,0.1,0c0.9,0,1.6-0.7,1.7-1.6
				c0.1-0.9-0.7-1.8-1.6-1.8c-0.4,0-0.7,0-1.1,0c-0.9,0-1.7,0.8-1.7,1.7C347.1,312.3,347.9,313.1,348.8,313.1z"/>
			<path id="XMLID_119_" class="st4" d="M388.1,381.3h-2.6v-5.1c0-6.9-1.9-13.6-5.5-19.4c-3.2-5.2-7.7-9.5-13-12.5
				c0.7-1.8,1.2-4.2,1.8-7.7c0.1-0.6,0.2-1,0.3-1.6c0.1-0.6,0.3-1.2,0.4-2.2h1.2c0.9,0,1.7-0.8,1.7-1.7c0-1.8-0.7-3.4-2-4.8
				c0,0,0-0.1,0-0.1c0.1-0.9,0.1-1.2,0.1-1.3c0.1-2.5,0-4.4-0.5-6c-1.5-5-4.3-9.1-8.1-12c-3.7-2.8-8.3-4.3-13.1-4.3
				c-4.8,0-9.4,1.5-13.1,4.3c-3.8,2.9-6.6,7-8.1,12c-0.5,1.5-0.6,3.4-0.5,5.8c0,0.2,0,0.6,0.1,1.4c0,0,0,0.1,0,0.1
				c-1.3,1.3-2,2.9-2,4.8c0,0.9,0.8,1.7,1.7,1.7h1.2c0.2,0.9,0.3,1.6,0.4,2.2c0.1,0.5,0.2,1,0.3,1.6c0.6,3.5,1.1,5.9,1.8,7.7
				c-5.3,3-9.8,7.3-13,12.5c-3.6,5.8-5.5,12.5-5.5,19.4v5.1h-2.6c-0.9,0-1.7,0.8-1.7,1.7c0,0.9,0.8,1.7,1.7,1.7h4.3h12.8H371h12.8
				h4.3c0.9,0,1.7-0.8,1.7-1.7C389.8,382.1,389,381.3,388.1,381.3z M329.2,329.5c1.1-1.7,3.6-2.8,5.2-3.4c3.7-1.4,9-2.1,14.4-2.1
				c5.5,0,10.7,0.8,14.4,2.1c1.6,0.6,4.1,1.7,5.2,3.4H329.2z M330.9,320c2.5-8.5,9.4-13.8,18-13.8c8.5,0,15.4,5.3,18,13.8
				c0.3,1,0.4,2.4,0.4,4c-1-0.5-2.1-1-3.4-1.4c-0.1-1.1-0.4-2-0.5-2.1c-1.4-4.4-4.3-7.8-8.1-9.5c-0.9-0.4-1.9,0-2.3,0.8
				c-0.4,0.9,0,1.9,0.8,2.3c2.9,1.3,5.2,4,6.3,7.5c0,0,0,0,0,0.1c-3.5-0.8-7.4-1.1-11.3-1.1c-6.9,0-13.8,1.1-18.3,3.6
				C330.4,322.4,330.6,321,330.9,320z M366,332.9c-0.1,0.6-0.2,1-0.3,1.5c-0.1,0.6-0.2,1.1-0.3,1.7c-1.4,8.7-2.3,9.3-6.1,11.7
				c-0.6,0.4-1.4,0.9-2.2,1.4c-5.5,3.2-11.1,3.2-16.6,0c-0.8-0.5-1.5-1-2.2-1.4c-3.8-2.4-4.7-3-6.1-11.7c-0.1-0.6-0.2-1.1-0.3-1.7
				c-0.1-0.4-0.2-0.9-0.3-1.5H366L366,332.9z M315.5,376.2c0-12,6.4-23,16.8-28.9c0.8,0.9,1.7,1.7,2.8,2.5c-1.7,0.9-3.3,1.9-4.8,3.1
				c-0.7,0.6-0.9,1.7-0.3,2.4c0.3,0.4,0.8,0.7,1.3,0.7c0.4,0,0.7-0.1,1.1-0.4c1.3-1.1,2.8-2,4.3-2.8l1.6-0.8c0.1,0,0.1,0.1,0.2,0.1
				c0,0,0.1,0,0.1,0.1c3.3,1.9,6.7,2.9,10.1,2.9c0,0,0,0,0,0c3.4,0,6.8-1,10.1-2.9c0,0,0.1,0,0.1-0.1c0.8-0.5,1.5-1,2.1-1.4
				c1.8-1.2,3.2-2.1,4.2-3.4c10.4,5.9,16.8,16.9,16.8,28.9v5.1h-9.4v-8.5c0,0,0-0.1,0-0.1c0-0.5-0.2-1-0.6-1.3c0,0,0,0,0,0
				c0,0-0.1,0-0.1-0.1l-8.5-6.8c-0.3-0.2-0.7-0.4-1.1-0.4h-27.3c-0.4,0-0.8,0.1-1.1,0.4l-8.5,6.8c0,0,0,0,0,0c0,0,0,0,0,0
				c0,0,0,0-0.1,0.1c0,0,0,0,0,0c0,0,0,0-0.1,0.1c0,0,0,0,0,0c0,0,0,0.1-0.1,0.1c0,0,0,0,0,0c0,0,0,0.1-0.1,0.1c0,0,0,0,0,0.1
				c0,0,0,0,0,0.1c0,0,0,0,0,0.1c0,0,0,0,0,0.1c0,0,0,0,0,0.1c0,0,0,0.1,0,0.1c0,0,0,0.1,0,0.1c0,0,0,0.1,0,0.1c0,0,0,0,0,0.1
				c0,0,0,0.1,0,0.1c0,0,0,0,0,0v8.5h-9.4V376.2z M350.5,367.7h11.3l4.3,3.4h-15.6V367.7L350.5,367.7z M347.1,371.1h-15.6l4.3-3.4
				h11.3V371.1z M328.3,381.3v-6.8h18.8v3.4c0,0.9,0.8,1.7,1.7,1.7c0.9,0,1.7-0.8,1.7-1.7v-3.4h18.8v6.8H328.3z"/>
		</g>
	</g>
	<g id="XMLID_3_">
		<g id="XMLID_24_">
			<path id="XMLID_35_" class="st2" d="M279.8,260.1h-59.7v9.9c0,3.9,3.2,7.1,7.1,7.1h45.5c3.9,0,7.1-3.2,7.1-7.1V260.1z"/>
			<path id="XMLID_32_" class="st0" d="M220.1,260.1h59.7v-40.6c-3.8-0.4-6.8-3.6-6.8-7.5c0,4.2-3.4,7.5-7.7,7.5
				c-4.2,0-7.7-3.4-7.7-7.5c0,4.2-3.4,7.5-7.7,7.5c-4.2,0-7.7-3.4-7.7-7.5c0,4.2-3.4,7.5-7.7,7.5c-4.2,0-7.7-3.4-7.7-7.5
				c0,3.9-3,7.1-6.9,7.5V260.1L220.1,260.1z M241.4,231.3v12.8h-12.8v-12.8H241.4z"/>
			<rect id="XMLID_31_" x="228.6" y="231.3" class="st1" width="12.8" height="12.8"/>
			<path id="XMLID_30_" class="st1" d="M220.1,219.5c3.9-0.4,6.9-3.6,6.9-7.5v-3.8l4.6-16.4h-11.5l-8.5,16.4v3.8
				c0,4.2,3.4,7.5,7.7,7.5C219.6,219.5,219.8,219.5,220.1,219.5z"/>
			<path id="XMLID_29_" class="st5" d="M227,212c0,4.2,3.4,7.5,7.7,7.5c4.2,0,7.7-3.4,7.7-7.5v-3.8l1.5-16.4h-12.3l-4.6,16.4V212z"
				/>
			<path id="XMLID_28_" class="st1" d="M242.3,208.2v3.8c0,4.2,3.4,7.5,7.7,7.5c4.2,0,7.7-3.4,7.7-7.5v-3.8l-1.5-16.4h-12.3
				L242.3,208.2z"/>
			<path id="XMLID_27_" class="st5" d="M256.1,191.8l1.5,16.4v3.8c0,4.2,3.4,7.5,7.7,7.5c4.2,0,7.7-3.4,7.7-7.5v-3.8l-4.6-16.4
				H256.1z"/>
			<path id="XMLID_26_" class="st1" d="M268.4,191.8l4.6,16.4l0,3.8c0,3.9,3,7.1,6.8,7.5c0.3,0,0.6,0,0.9,0c4.2,0,7.7-3.4,7.7-7.5
				v-3.8l-8.6-16.4L268.4,191.8L268.4,191.8z"/>
			<path id="XMLID_25_" class="st2" d="M268.4,191.8h11.4v-5.7c0-3.9-3.2-7.1-7.1-7.1h-45.5c-3.9,0-7.1,3.2-7.1,7.1l0,5.7h11.5h12.3
				h12.3H268.4z"/>
		</g>
		<g id="XMLID_4_">
			<path id="XMLID_23_" class="st4" d="M250,265.4c-1.8,0-3.2,1.4-3.2,3.2c0,1.8,1.4,3.2,3.2,3.2c1.8,0,3.2-1.4,3.2-3.2
				C253.2,266.9,251.7,265.4,250,265.4z"/>
			<path id="XMLID_13_" class="st4" d="M290.5,208C290.5,208,290.5,207.9,290.5,208c0-0.1,0-0.2,0-0.2c0,0,0,0,0-0.1
				c0-0.1,0-0.1-0.1-0.2c0,0,0,0,0-0.1c0-0.1-0.1-0.1-0.1-0.2c0,0,0,0,0,0l0,0c0,0,0,0,0,0l-8.3-15.9v-5.1c0-5.1-4.2-9.3-9.3-9.3
				h-45.5c-5.1,0-9.3,4.2-9.3,9.3l0,5.2l-8.3,15.9c0,0,0,0,0,0l0,0c0,0,0,0,0,0c0,0.1-0.1,0.1-0.1,0.2c0,0,0,0,0,0.1
				c0,0.1,0,0.1-0.1,0.2c0,0,0,0,0,0.1c0,0.1,0,0.1,0,0.2c0,0,0,0,0,0.1c0,0.1,0,0.2,0,0.2v3.8c0,4.9,3.7,8.9,8.5,9.6v48.5
				c0,5.1,4.2,9.3,9.3,9.3h45.5c5.1,0,9.3-4.2,9.3-9.3v-48.5c4.8-0.6,8.6-4.7,8.6-9.6v-3.8C290.5,208.1,290.5,208.1,290.5,208z
				 M227.2,181.2h45.5c2.8,0,5,2.2,5,5v3.5h-9.3h-12.3h-12.3h-12.3h-9.3l0-3.5C222.2,183.4,224.5,181.2,227.2,181.2z M270.9,212
				c0,3-2.5,5.4-5.5,5.4c-3.1,0-5.5-2.4-5.5-5.4v-1.6h0.6c1.2,0,2.1-1,2.1-2.1c0-1.2-1-2.1-2.1-2.1h-0.8l-1.1-12.1h8.3l4.1,14.5V212
				z M244.5,208.3l1.3-14.3h8.4l1.1,12.1h-5.6c-1.2,0-2.1,1-2.1,2.1c0,1.2,1,2.1,2.1,2.1h5.8v1.6c0,3-2.5,5.4-5.5,5.4
				c-3.1,0-5.5-2.4-5.5-5.4V208.3z M221.4,194h7.3l-3.4,12.1h-10.2L221.4,194z M229.1,210.4h6.3c1.2,0,2.1-1,2.1-2.1
				c0-1.2-1-2.1-2.1-2.1h-5.6l3.4-12.1h8.3l-1.3,14c0,0.1,0,0.1,0,0.2v3.8c0,3-2.5,5.4-5.5,5.4c-3.1,0-5.5-2.4-5.5-5.4L229.1,210.4
				L229.1,210.4z M213.7,212v-1.6h11.1v1.6c0,3-2.5,5.4-5.5,5.4C216.2,217.4,213.7,215,213.7,212z M272.7,275h-45.5
				c-2.8,0-5-2.2-5-5v-48.8c1.9-0.6,3.5-1.7,4.7-3.2c1.8,2.2,4.6,3.7,7.7,3.7c3.1,0,5.9-1.4,7.7-3.7c1.8,2.2,4.6,3.7,7.7,3.7
				c3.1,0,5.9-1.4,7.7-3.7c1.8,2.2,4.6,3.7,7.7,3.7c3.1,0,5.9-1.4,7.7-3.7c1.2,1.5,2.8,2.6,4.7,3.2V258h-42.8c-1.2,0-2.1,1-2.1,2.1
				c0,1.2,1,2.1,2.1,2.1h42.8v7.8C277.7,272.8,275.5,275,272.7,275z M280.7,217.4c-3.1,0-5.5-2.4-5.5-5.4v-3.8c0-0.2,0-0.4-0.1-0.6
				l-3.8-13.7h7.3l6.3,12.1h-2.7c-1.2,0-2.1,1-2.1,2.1c0,1.2,1,2.1,2.1,2.1h4.1v1.6C286.3,215,283.8,217.4,280.7,217.4z"/>
			<path id="XMLID_10_" class="st4" d="M228.6,246.2h12.8c1.2,0,2.1-1,2.1-2.1v-12.8c0-1.2-1-2.1-2.1-2.1h-12.8
				c-1.2,0-2.1,1-2.1,2.1v12.8C226.5,245.3,227.5,246.2,228.6,246.2z M230.8,233.4h8.5v8.5h-8.5V233.4z"/>
			<path id="XMLID_9_" class="st4" d="M250,233.4h21.3c1.2,0,2.1-1,2.1-2.1c0-1.2-1-2.1-2.1-2.1H250c-1.2,0-2.1,1-2.1,2.1
				C247.8,232.5,248.8,233.4,250,233.4z"/>
			<path id="XMLID_8_" class="st4" d="M271.3,237.7H270c-1.2,0-2.1,1-2.1,2.1c0,1.2,1,2.1,2.1,2.1h1.3c1.2,0,2.1-1,2.1-2.1
				C273.4,238.6,272.5,237.7,271.3,237.7z"/>
			<path id="XMLID_7_" class="st4" d="M250,242h12.4c1.2,0,2.1-1,2.1-2.1c0-1.2-1-2.1-2.1-2.1H250c-1.2,0-2.1,1-2.1,2.1
				C247.8,241,248.8,242,250,242z"/>
			<path id="XMLID_6_" class="st4" d="M250,250.5h1.3c1.2,0,2.1-1,2.1-2.1c0-1.2-1-2.1-2.1-2.1H250c-1.2,0-2.1,1-2.1,2.1
				C247.8,249.5,248.8,250.5,250,250.5z"/>
			<path id="XMLID_5_" class="st4" d="M271.3,246.2h-12.4c-1.2,0-2.1,1-2.1,2.1c0,1.2,1,2.1,2.1,2.1h12.4c1.2,0,2.1-1,2.1-2.1
				C273.4,247.2,272.5,246.2,271.3,246.2z"/>
			<path id="XMLID_36_" class="st4" d="M228.2,258H227c-1.2,0-2.1,1-2.1,2.1c0,1.2,1,2.1,2.1,2.1h1.3c1.2,0,2.1-1,2.1-2.1
				C230.4,258.9,229.4,258,228.2,258z"/>
		</g>
	</g>
	<g>
		<path class="st2" d="M226.4,290.3h3.5c2.5,0,3.8,1.2,3.8,4v0.9c0,2.6-0.9,4.3-3.9,4.3h-0.9v6.5h-2.4V290.3z M228.8,297.5h0.7
			c1.5,0,1.8-0.9,1.8-2.4v-0.8c0-1.1-0.2-2.1-1.6-2.1h-0.9V297.5z"/>
		<path class="st2" d="M241.3,303.5c0,0.8,0,2,0,2.5h-2.2c-0.1-0.2-0.1-0.7-0.2-0.9c-0.4,0.7-1.1,1.1-2,1.1c-1.8,0-2.6-1.7-2.6-3.5
			v-0.2c0-3,2-3.8,4.2-3.8c0.1,0,0.2,0,0.3,0v-1.6c0-1-0.1-1.5-0.9-1.5c-0.7,0-0.9,0.6-0.9,1.3v0.2h-2.4v-0.2c0-1.8,0.7-3.3,3.4-3.3
			c2.4,0,3.2,1.3,3.2,3.3V303.5z M239,300.5c-0.1,0-0.3,0-0.4,0c-1.1,0-1.8,0.4-1.8,1.9v0.2c0,0.9,0.3,1.5,1.1,1.5
			c0.8,0,1.2-0.6,1.2-2.2V300.5z"/>
		<path class="st2" d="M250.2,305.3c0,2.7-0.3,5-3.7,5c-2.9,0-3.4-1.8-3.4-3.2v-0.1h2.4v0.1c0,0.3,0.1,1.2,1.1,1.2
			c1,0,1.2-0.8,1.2-2.3v-1.3c-0.3,0.7-1,1.1-2,1.1c-2.2,0-2.7-1.7-2.7-3.8v-4.6c0-1.7,0.6-3.7,3-3.7c1.3,0,1.8,0.6,2,1.3
			c0-0.4,0.1-0.9,0.1-1.1h2.1c0,0.8,0,1.8,0,3V305.3z M245.5,297.5v4.3c0,1.2,0.3,1.9,1.1,1.9c1,0,1.2-0.8,1.2-2.3v-3.6
			c0-1-0.1-1.9-1.1-1.9C245.9,295.8,245.5,296.3,245.5,297.5z"/>
		<path class="st2" d="M254.3,300.5v1.8c0,0.9,0.2,1.8,1.1,1.8c1,0,1.1-0.9,1.1-1.7v-0.1h2.4v0.1c0,1.3-0.3,3.8-3.4,3.8
			c-3.1,0-3.6-1.9-3.6-4.4v-4c0-1.7,0.5-4.2,3.6-4.2c2.6,0,3.5,1.8,3.5,4.2c0,0.7,0,2.1,0,2.8H254.3z M256.6,298.6v-1.2
			c0-1.1-0.3-1.7-1.1-1.7c-0.8,0-1.2,0.6-1.2,1.7v1.2H256.6z"/>
		<path class="st2" d="M260.6,290.3h2.4v7.1h0c0.6-1.6,2-4.9,2.8-7.1h2.7l-2.9,6.1l3,9.6H266l-2.1-7.1l-1,2.1v5h-2.4V290.3z"/>
		<path class="st2" d="M269.7,293.8h2.4V306h-2.4V293.8z M269.7,289.6h2.4v2.6h-2.4V289.6z"/>
		<path class="st2" d="M273.2,293.8h1.3v-2.9h2.4v2.9h1.5v2.1h-1.5v7.2c0,0.6,0.1,1,0.8,1c0.2,0,0.5,0,0.7-0.1v1.8
			c-0.4,0.2-1,0.2-1.5,0.2c-1.5,0-2.4-0.5-2.4-2.6v-7.6h-1.3V293.8z"/>
		<path class="st2" d="M211,328.8v1.8c0,0.9,0.2,1.8,1.1,1.8c1,0,1.1-0.9,1.1-1.7v-0.1h2.4v0.1c0,1.3-0.3,3.8-3.4,3.8
			c-3.1,0-3.6-1.9-3.6-4.4v-4c0-1.7,0.5-4.2,3.6-4.2c2.6,0,3.5,1.8,3.5,4.2c0,0.7,0,2.1,0,2.8H211z M213.4,326.9v-1.2
			c0-1.1-0.3-1.7-1.1-1.7c-0.8,0-1.2,0.6-1.2,1.7v1.2H213.4z"/>
		<path class="st2" d="M221.3,326.9v2.2H217v-2.2H221.3z"/>
		<path class="st2" d="M229.4,330.2v0.2c0,2.2-0.6,4.1-3.4,4.1c-2.8,0-3.3-1.9-3.3-4.4v-4.2c0-2,0.7-4,3.4-4c3,0,3.3,2.2,3.3,3.7
			v0.5H227v-0.5c0-0.9-0.1-1.6-0.9-1.6c-0.7,0-1,0.6-1,1.6v5.3c0,0.8,0.2,1.6,1,1.6c0.8,0,0.9-0.6,0.9-1.6v-0.6H229.4z"/>
		<path class="st2" d="M237.8,325.8v4.7c0,2.6-1.3,4-3.6,4c-2.4,0-3.6-1.4-3.6-3.9v-4.8c0-2.6,1.5-3.8,3.6-3.8
			C236.5,321.9,237.8,323.3,237.8,325.8z M233.1,325.7v4.9c0,1,0.3,1.7,1.2,1.7c0.8,0,1.1-0.6,1.1-1.7v-4.9c0-0.9-0.3-1.6-1.1-1.6
			C233.5,324,233.1,324.6,233.1,325.7z"/>
		<path class="st2" d="M239.5,325.6c0-2.4,0-3,0-3.5h2.3c0.1,0.4,0.1,0.7,0.1,1.1c0.4-0.8,1.2-1.3,2.1-1.3c1,0,1.7,0.4,2,1.3
			c0.4-0.7,1.1-1.3,2.3-1.3c1.3,0,2.4,0.7,2.4,3.1v9.3h-2.4v-8.9c0-0.9-0.2-1.3-0.9-1.3c-0.9,0-1.1,0.7-1.1,1.9v8.3h-2.4v-8.8
			c0-1.1-0.3-1.4-0.9-1.4c-0.9,0-1.1,0.7-1.1,1.8v8.4h-2.4V325.6z"/>
		<path class="st2" d="M252.8,325.6c0-2.4,0-3,0-3.5h2.3c0.1,0.4,0.1,0.7,0.1,1.1c0.4-0.8,1.2-1.3,2.1-1.3c1,0,1.7,0.4,2,1.3
			c0.4-0.7,1.1-1.3,2.3-1.3c1.3,0,2.4,0.7,2.4,3.1v9.3h-2.4v-8.9c0-0.9-0.2-1.3-0.9-1.3c-0.9,0-1.1,0.7-1.1,1.9v8.3h-2.4v-8.8
			c0-1.1-0.3-1.4-0.9-1.4c-0.9,0-1.1,0.7-1.1,1.8v8.4h-2.4V325.6z"/>
		<path class="st2" d="M268.1,328.8v1.8c0,0.9,0.2,1.8,1.1,1.8c1,0,1.1-0.9,1.1-1.7v-0.1h2.4v0.1c0,1.3-0.3,3.8-3.4,3.8
			c-3.1,0-3.6-1.9-3.6-4.4v-4c0-1.7,0.5-4.2,3.6-4.2c2.6,0,3.5,1.8,3.5,4.2c0,0.7,0,2.1,0,2.8H268.1z M270.4,326.9v-1.2
			c0-1.1-0.3-1.7-1.1-1.7c-0.8,0-1.2,0.6-1.2,1.7v1.2H270.4z"/>
		<path class="st2" d="M274.4,326.2c0-2,0-2.9,0-4.1h2.3c0,0.2,0.1,1.3,0.1,2c0.5-1.6,1.6-2.2,2.7-2.2v3c-1.4,0-2.6,0.4-2.6,2.9v6.5
			h-2.4V326.2z"/>
		<path class="st2" d="M287.1,330.2v0.2c0,2.2-0.6,4.1-3.4,4.1c-2.8,0-3.3-1.9-3.3-4.4v-4.2c0-2,0.7-4,3.4-4c3,0,3.3,2.2,3.3,3.7
			v0.5h-2.4v-0.5c0-0.9-0.1-1.6-0.9-1.6c-0.7,0-1,0.6-1,1.6v5.3c0,0.8,0.2,1.6,1,1.6c0.8,0,0.9-0.6,0.9-1.6v-0.6H287.1z"/>
		<path class="st2" d="M290.8,328.8v1.8c0,0.9,0.2,1.8,1.1,1.8c1,0,1.1-0.9,1.1-1.7v-0.1h2.4v0.1c0,1.3-0.3,3.8-3.4,3.8
			c-3.1,0-3.6-1.9-3.6-4.4v-4c0-1.7,0.5-4.2,3.6-4.2c2.6,0,3.5,1.8,3.5,4.2c0,0.7,0,2.1,0,2.8H290.8z M293.1,326.9v-1.2
			c0-1.1-0.3-1.7-1.1-1.7c-0.8,0-1.2,0.6-1.2,1.7v1.2H293.1z"/>
	</g>
</g>
<g id="DESIGNED_BY_FREEPIK">
	<g id="XMLID_453_">
		<g id="XMLID_562_">
			<path id="XMLID_728_" class="st2" d="M180.3,483v-0.2c-0.2,0.2-0.4,0.5-0.6,0.6c-0.2,0.2-0.4,0.3-0.7,0.4
				c-0.2,0.1-0.5,0.1-0.8,0.1c-0.4,0-0.7-0.1-1.1-0.2c-0.3-0.2-0.6-0.4-0.9-0.7c-0.2-0.3-0.4-0.7-0.5-1.1c-0.1-0.4-0.2-0.9-0.2-1.3
				c0-1,0.2-1.8,0.7-2.4c0.5-0.6,1.1-0.8,2-0.8c0.5,0,0.9,0.1,1.2,0.2c0.3,0.2,0.6,0.4,0.9,0.7v-2.4c0-0.3,0.1-0.6,0.2-0.8
				c0.1-0.2,0.3-0.3,0.6-0.3c0.2,0,0.4,0.1,0.6,0.2c0.1,0.2,0.2,0.4,0.2,0.7v7.1c0,0.3-0.1,0.5-0.2,0.7c-0.1,0.2-0.3,0.2-0.6,0.2
				c-0.2,0-0.4-0.1-0.5-0.2C180.4,483.5,180.3,483.3,180.3,483z M177.1,480.6c0,0.4,0.1,0.8,0.2,1.1c0.1,0.3,0.3,0.5,0.6,0.7
				c0.2,0.2,0.5,0.2,0.8,0.2c0.3,0,0.5-0.1,0.8-0.2c0.2-0.1,0.4-0.4,0.6-0.7c0.1-0.3,0.2-0.7,0.2-1.1c0-0.4-0.1-0.8-0.2-1.1
				c-0.1-0.3-0.3-0.5-0.6-0.7c-0.2-0.2-0.5-0.2-0.8-0.2c-0.3,0-0.6,0.1-0.8,0.3c-0.2,0.2-0.4,0.4-0.5,0.7
				C177.2,479.8,177.1,480.2,177.1,480.6z"/>
			<path id="XMLID_704_" class="st2" d="M187.5,481h-3.2c0,0.4,0.1,0.7,0.2,1c0.1,0.3,0.3,0.5,0.6,0.6c0.2,0.1,0.5,0.2,0.8,0.2
				c0.2,0,0.4,0,0.5-0.1c0.2,0,0.3-0.1,0.5-0.2c0.2-0.1,0.3-0.2,0.4-0.3c0.1-0.1,0.3-0.3,0.5-0.5c0.1-0.1,0.2-0.1,0.4-0.1
				c0.2,0,0.3,0,0.4,0.1c0.1,0.1,0.2,0.2,0.2,0.4c0,0.1-0.1,0.3-0.2,0.5c-0.1,0.2-0.3,0.4-0.5,0.6c-0.2,0.2-0.5,0.3-0.9,0.4
				c-0.3,0.1-0.8,0.2-1.2,0.2c-1,0-1.8-0.3-2.4-0.9c-0.6-0.6-0.9-1.4-0.9-2.4c0-0.5,0.1-0.9,0.2-1.3c0.1-0.4,0.4-0.8,0.6-1.1
				c0.3-0.3,0.6-0.5,1-0.7c0.4-0.2,0.8-0.2,1.3-0.2c0.6,0,1.2,0.1,1.6,0.4c0.5,0.3,0.8,0.6,1,1c0.2,0.4,0.3,0.9,0.3,1.3
				c0,0.4-0.1,0.7-0.4,0.8C188.2,480.9,187.9,481,187.5,481z M184.3,480.1h2.9c0-0.6-0.2-1-0.4-1.2c-0.3-0.3-0.6-0.4-1-0.4
				c-0.4,0-0.7,0.1-1,0.4C184.5,479.1,184.3,479.5,184.3,480.1z"/>
			<path id="XMLID_583_" class="st2" d="M194.8,481.8c0,0.4-0.1,0.8-0.3,1.1c-0.2,0.3-0.5,0.6-1,0.7c-0.4,0.2-0.9,0.2-1.6,0.2
				c-0.6,0-1.1-0.1-1.5-0.3c-0.4-0.2-0.7-0.4-0.9-0.7c-0.2-0.3-0.3-0.5-0.3-0.8c0-0.2,0.1-0.3,0.2-0.5c0.1-0.1,0.3-0.2,0.5-0.2
				c0.2,0,0.3,0,0.4,0.1c0.1,0.1,0.2,0.2,0.3,0.3c0.2,0.3,0.4,0.5,0.6,0.6c0.2,0.1,0.5,0.2,0.9,0.2c0.3,0,0.6-0.1,0.8-0.2
				c0.2-0.1,0.3-0.3,0.3-0.5c0-0.3-0.1-0.5-0.3-0.6c-0.2-0.1-0.6-0.3-1.1-0.4c-0.6-0.1-1-0.3-1.4-0.4c-0.4-0.2-0.6-0.4-0.8-0.6
				c-0.2-0.3-0.3-0.6-0.3-0.9c0-0.3,0.1-0.6,0.3-0.9c0.2-0.3,0.5-0.5,0.9-0.7c0.4-0.2,0.8-0.3,1.4-0.3c0.4,0,0.8,0,1.1,0.1
				c0.3,0.1,0.6,0.2,0.8,0.4c0.2,0.1,0.4,0.3,0.5,0.5c0.1,0.2,0.2,0.4,0.2,0.5c0,0.2-0.1,0.3-0.2,0.5c-0.1,0.1-0.3,0.2-0.5,0.2
				c-0.2,0-0.3,0-0.4-0.1c-0.1-0.1-0.3-0.2-0.4-0.4c-0.1-0.2-0.3-0.3-0.4-0.4c-0.2-0.1-0.4-0.1-0.7-0.1c-0.3,0-0.5,0.1-0.7,0.2
				c-0.2,0.1-0.3,0.3-0.3,0.5c0,0.2,0.1,0.3,0.2,0.4c0.1,0.1,0.3,0.2,0.6,0.3c0.2,0.1,0.6,0.2,1,0.3c0.5,0.1,0.9,0.3,1.2,0.4
				c0.3,0.2,0.6,0.4,0.7,0.6C194.8,481.2,194.8,481.5,194.8,481.8z"/>
			<path id="XMLID_580_" class="st2" d="M196.5,476.5c-0.2,0-0.4-0.1-0.6-0.2c-0.2-0.1-0.2-0.3-0.2-0.6c0-0.2,0.1-0.4,0.2-0.6
				c0.2-0.1,0.4-0.2,0.6-0.2c0.2,0,0.4,0.1,0.6,0.2c0.2,0.1,0.2,0.3,0.2,0.6c0,0.3-0.1,0.4-0.2,0.6
				C196.9,476.5,196.7,476.5,196.5,476.5z M197.3,478.2v4.7c0,0.3-0.1,0.6-0.2,0.7c-0.2,0.2-0.3,0.2-0.6,0.2c-0.2,0-0.4-0.1-0.6-0.3
				c-0.1-0.2-0.2-0.4-0.2-0.7v-4.6c0-0.3,0.1-0.6,0.2-0.7c0.1-0.2,0.3-0.2,0.6-0.2c0.2,0,0.4,0.1,0.6,0.2
				C197.2,477.7,197.3,477.9,197.3,478.2z"/>
			<path id="XMLID_577_" class="st2" d="M204.4,478.5v4.7c0,0.5-0.1,1-0.2,1.4c-0.1,0.4-0.3,0.7-0.6,1c-0.3,0.3-0.6,0.4-1,0.6
				c-0.4,0.1-0.9,0.2-1.5,0.2c-0.6,0-1.1-0.1-1.5-0.2c-0.4-0.2-0.8-0.4-1-0.6c-0.2-0.2-0.4-0.5-0.4-0.8c0-0.2,0.1-0.4,0.2-0.5
				c0.1-0.1,0.3-0.2,0.5-0.2c0.2,0,0.4,0.1,0.6,0.3c0.1,0.1,0.2,0.2,0.3,0.3c0.1,0.1,0.2,0.2,0.3,0.3c0.1,0.1,0.2,0.1,0.4,0.2
				c0.2,0,0.3,0.1,0.5,0.1c0.4,0,0.7-0.1,1-0.2c0.2-0.1,0.4-0.3,0.5-0.5c0.1-0.2,0.1-0.4,0.2-0.7c0-0.2,0-0.6,0-1.2
				c-0.2,0.3-0.5,0.6-0.9,0.8c-0.3,0.2-0.7,0.3-1.2,0.3c-0.5,0-1-0.1-1.4-0.4c-0.4-0.3-0.7-0.7-0.9-1.2c-0.2-0.5-0.3-1.1-0.3-1.7
				c0-0.5,0.1-0.9,0.2-1.3c0.1-0.4,0.3-0.7,0.6-1c0.2-0.3,0.5-0.5,0.8-0.6c0.3-0.1,0.7-0.2,1.1-0.2c0.5,0,0.9,0.1,1.2,0.3
				c0.3,0.2,0.6,0.5,0.9,0.8v-0.2c0-0.3,0.1-0.5,0.2-0.7c0.1-0.2,0.3-0.2,0.5-0.2c0.3,0,0.5,0.1,0.6,0.3
				C204.3,477.8,204.4,478.1,204.4,478.5z M199.7,480.5c0,0.7,0.1,1.2,0.4,1.5c0.3,0.3,0.7,0.5,1.1,0.5c0.3,0,0.5-0.1,0.8-0.2
				c0.2-0.1,0.4-0.4,0.6-0.7c0.2-0.3,0.2-0.6,0.2-1.1c0-0.7-0.1-1.2-0.4-1.5c-0.3-0.4-0.7-0.6-1.1-0.6c-0.5,0-0.8,0.2-1.1,0.5
				C199.8,479.4,199.7,479.9,199.7,480.5z"/>
			<path id="XMLID_575_" class="st2" d="M207,478.2v0.2c0.3-0.4,0.6-0.7,0.9-0.8c0.3-0.2,0.7-0.3,1.2-0.3c0.4,0,0.8,0.1,1.1,0.3
				c0.3,0.2,0.6,0.4,0.8,0.8c0.1,0.2,0.2,0.4,0.2,0.6c0,0.2,0,0.5,0,0.9v3c0,0.3-0.1,0.6-0.2,0.7c-0.1,0.2-0.3,0.2-0.6,0.2
				c-0.2,0-0.4-0.1-0.6-0.3c-0.2-0.2-0.2-0.4-0.2-0.7v-2.7c0-0.5-0.1-0.9-0.2-1.2c-0.1-0.3-0.4-0.4-0.9-0.4c-0.3,0-0.6,0.1-0.8,0.3
				c-0.2,0.2-0.4,0.4-0.5,0.7c-0.1,0.2-0.1,0.7-0.1,1.4v2c0,0.3-0.1,0.6-0.2,0.7c-0.2,0.2-0.3,0.2-0.6,0.2c-0.2,0-0.4-0.1-0.6-0.3
				c-0.2-0.2-0.2-0.4-0.2-0.7v-4.7c0-0.3,0.1-0.5,0.2-0.7c0.1-0.2,0.3-0.2,0.6-0.2c0.1,0,0.3,0,0.4,0.1c0.1,0.1,0.2,0.2,0.3,0.3
				C206.9,477.8,207,478,207,478.2z"/>
			<path id="XMLID_572_" class="st2" d="M216.8,481h-3.2c0,0.4,0.1,0.7,0.2,1c0.1,0.3,0.3,0.5,0.6,0.6c0.2,0.1,0.5,0.2,0.8,0.2
				c0.2,0,0.4,0,0.5-0.1c0.2,0,0.3-0.1,0.5-0.2c0.1-0.1,0.3-0.2,0.4-0.3c0.1-0.1,0.3-0.3,0.5-0.5c0.1-0.1,0.2-0.1,0.4-0.1
				c0.2,0,0.3,0,0.4,0.1c0.1,0.1,0.2,0.2,0.2,0.4c0,0.1-0.1,0.3-0.2,0.5c-0.1,0.2-0.3,0.4-0.5,0.6c-0.2,0.2-0.5,0.3-0.9,0.4
				c-0.4,0.1-0.8,0.2-1.2,0.2c-1,0-1.8-0.3-2.4-0.9c-0.6-0.6-0.9-1.4-0.9-2.4c0-0.5,0.1-0.9,0.2-1.3c0.1-0.4,0.4-0.8,0.6-1.1
				c0.3-0.3,0.6-0.5,1-0.7c0.4-0.2,0.8-0.2,1.3-0.2c0.6,0,1.2,0.1,1.6,0.4c0.5,0.3,0.8,0.6,1,1c0.2,0.4,0.3,0.9,0.3,1.3
				c0,0.4-0.1,0.7-0.4,0.8C217.6,480.9,217.3,481,216.8,481z M213.7,480.1h2.9c0-0.6-0.2-1-0.4-1.2c-0.3-0.3-0.6-0.4-1-0.4
				c-0.4,0-0.7,0.1-1,0.4C213.9,479.1,213.7,479.5,213.7,480.1z"/>
			<path id="XMLID_569_" class="st2" d="M223.4,483v-0.2c-0.2,0.2-0.4,0.5-0.6,0.6c-0.2,0.2-0.4,0.3-0.7,0.4
				c-0.2,0.1-0.5,0.1-0.8,0.1c-0.4,0-0.7-0.1-1.1-0.2c-0.3-0.2-0.6-0.4-0.9-0.7c-0.2-0.3-0.4-0.7-0.5-1.1c-0.1-0.4-0.2-0.9-0.2-1.3
				c0-1,0.2-1.8,0.7-2.4c0.5-0.6,1.1-0.8,2-0.8c0.5,0,0.9,0.1,1.2,0.2c0.3,0.2,0.6,0.4,0.9,0.7v-2.4c0-0.3,0.1-0.6,0.2-0.8
				c0.1-0.2,0.3-0.3,0.6-0.3s0.4,0.1,0.6,0.2c0.1,0.2,0.2,0.4,0.2,0.7v7.1c0,0.3-0.1,0.5-0.2,0.7c-0.1,0.2-0.3,0.2-0.6,0.2
				c-0.2,0-0.4-0.1-0.5-0.2C223.5,483.5,223.4,483.3,223.4,483z M220.2,480.6c0,0.4,0.1,0.8,0.2,1.1c0.1,0.3,0.3,0.5,0.6,0.7
				c0.2,0.2,0.5,0.2,0.8,0.2c0.3,0,0.5-0.1,0.8-0.2c0.2-0.1,0.4-0.4,0.6-0.7c0.1-0.3,0.2-0.7,0.2-1.1c0-0.4-0.1-0.8-0.2-1.1
				c-0.1-0.3-0.3-0.5-0.6-0.7c-0.2-0.2-0.5-0.2-0.8-0.2c-0.3,0-0.6,0.1-0.8,0.3c-0.2,0.2-0.4,0.4-0.5,0.7
				C220.3,479.8,220.2,480.2,220.2,480.6z"/>
			<path id="XMLID_565_" class="st2" d="M230.1,475.8v2.5c0.3-0.3,0.6-0.6,0.9-0.7c0.3-0.2,0.7-0.3,1.2-0.3c0.5,0,1,0.1,1.4,0.4
				c0.4,0.3,0.7,0.6,0.9,1.1c0.2,0.5,0.3,1.1,0.3,1.7c0,0.5-0.1,0.9-0.2,1.3c-0.1,0.4-0.3,0.8-0.5,1.1c-0.2,0.3-0.5,0.5-0.9,0.7
				c-0.3,0.2-0.7,0.2-1.1,0.2c-0.3,0-0.5,0-0.7-0.1c-0.2-0.1-0.4-0.1-0.6-0.2c-0.2-0.1-0.3-0.2-0.4-0.3c-0.1-0.1-0.3-0.3-0.4-0.5
				v0.2c0,0.3-0.1,0.5-0.2,0.7c-0.1,0.2-0.3,0.2-0.6,0.2c-0.2,0-0.4-0.1-0.5-0.2c-0.1-0.2-0.2-0.4-0.2-0.7v-7.1
				c0-0.3,0.1-0.6,0.2-0.7c0.1-0.2,0.3-0.3,0.6-0.3c0.3,0,0.4,0.1,0.6,0.2C230,475.3,230.1,475.5,230.1,475.8z M230.1,480.6
				c0,0.6,0.1,1.1,0.4,1.5c0.3,0.3,0.7,0.5,1.2,0.5c0.4,0,0.8-0.2,1.1-0.5c0.3-0.4,0.4-0.9,0.4-1.5c0-0.4-0.1-0.8-0.2-1.1
				c-0.1-0.3-0.3-0.5-0.5-0.7c-0.2-0.2-0.5-0.3-0.8-0.3c-0.3,0-0.6,0.1-0.8,0.3c-0.2,0.2-0.4,0.4-0.6,0.7
				C230.2,479.8,230.1,480.2,230.1,480.6z"/>
			<path id="XMLID_563_" class="st2" d="M237,484.1l0.1-0.4l-2-5c-0.1-0.3-0.2-0.5-0.2-0.6c0-0.1,0-0.3,0.1-0.4
				c0.1-0.1,0.2-0.2,0.3-0.3s0.3-0.1,0.4-0.1c0.2,0,0.4,0.1,0.5,0.2c0.1,0.1,0.2,0.4,0.3,0.6l1.4,4l1.3-3.7c0.1-0.3,0.2-0.5,0.3-0.7
				c0.1-0.2,0.2-0.3,0.3-0.3c0.1-0.1,0.2-0.1,0.4-0.1c0.1,0,0.2,0,0.4,0.1c0.1,0.1,0.2,0.2,0.3,0.3c0.1,0.1,0.1,0.2,0.1,0.3
				c0,0.1,0,0.2-0.1,0.3c0,0.1-0.1,0.3-0.1,0.4l-2.1,5.5c-0.2,0.5-0.4,0.9-0.5,1.1c-0.2,0.3-0.4,0.5-0.7,0.6
				c-0.3,0.1-0.7,0.2-1.2,0.2c-0.5,0-0.8-0.1-1.1-0.2c-0.2-0.1-0.4-0.3-0.4-0.6c0-0.2,0.1-0.3,0.2-0.4c0.1-0.1,0.3-0.2,0.5-0.2
				c0.1,0,0.2,0,0.3,0c0.1,0,0.2,0,0.3,0c0.2,0,0.3,0,0.4-0.1c0.1-0.1,0.2-0.2,0.3-0.3C236.8,484.6,236.9,484.4,237,484.1z"/>
		</g>
		<g id="XMLID_461_">
			<g id="XMLID_538_">
				<path id="XMLID_561_" class="st2" d="M260.4,477.4h0.4v-0.5c0-0.5,0.1-0.9,0.2-1.2c0.1-0.3,0.3-0.5,0.7-0.7
					c0.3-0.1,0.7-0.2,1.3-0.2c1,0,1.4,0.2,1.4,0.7c0,0.1,0,0.3-0.2,0.4c-0.1,0.1-0.2,0.2-0.3,0.2c-0.1,0-0.2,0-0.3,0
					c-0.1,0-0.3,0-0.4,0c-0.3,0-0.5,0.1-0.6,0.3c-0.1,0.2-0.1,0.4-0.1,0.7v0.4h0.4c0.6,0,0.9,0.2,0.9,0.6c0,0.3-0.1,0.4-0.2,0.5
					c-0.2,0.1-0.4,0.1-0.7,0.1h-0.4v4.3c0,0.3-0.1,0.6-0.2,0.7c-0.2,0.2-0.3,0.3-0.6,0.3c-0.2,0-0.4-0.1-0.6-0.3
					c-0.2-0.2-0.2-0.4-0.2-0.7v-4.3h-0.4c-0.2,0-0.4-0.1-0.6-0.2c-0.1-0.1-0.2-0.2-0.2-0.4C259.6,477.6,259.9,477.4,260.4,477.4"/>
				<path id="XMLID_560_" class="st2" d="M265.7,481.5v1.4c0,0.3-0.1,0.6-0.2,0.7c-0.2,0.2-0.3,0.2-0.6,0.2c-0.2,0-0.4-0.1-0.6-0.3
					c-0.1-0.2-0.2-0.4-0.2-0.7v-4.5c0-0.7,0.3-1.1,0.8-1.1c0.3,0,0.5,0.1,0.6,0.3c0.1,0.2,0.2,0.4,0.2,0.8c0.2-0.3,0.4-0.6,0.6-0.8
					c0.2-0.2,0.5-0.3,0.8-0.3c0.3,0,0.7,0.1,1,0.3c0.3,0.2,0.5,0.4,0.5,0.7c0,0.2-0.1,0.4-0.2,0.5c-0.1,0.1-0.3,0.2-0.4,0.2
					c-0.1,0-0.2,0-0.4-0.1c-0.2-0.1-0.4-0.1-0.6-0.1c-0.2,0-0.4,0.1-0.6,0.2c-0.2,0.1-0.3,0.3-0.4,0.6c-0.1,0.2-0.1,0.5-0.2,0.9
					C265.8,480.6,265.7,481.1,265.7,481.5"/>
				<path id="XMLID_557_" class="st2" d="M273.2,481H270c0,0.4,0.1,0.7,0.2,1c0.1,0.3,0.3,0.5,0.6,0.6c0.2,0.1,0.5,0.2,0.8,0.2
					c0.2,0,0.4,0,0.5-0.1c0.2,0,0.3-0.1,0.5-0.2c0.2-0.1,0.3-0.2,0.4-0.3c0.1-0.1,0.3-0.3,0.5-0.4c0.1-0.1,0.2-0.1,0.4-0.1
					c0.2,0,0.3,0,0.4,0.1c0.1,0.1,0.2,0.2,0.2,0.4c0,0.1-0.1,0.3-0.2,0.5c-0.1,0.2-0.3,0.4-0.5,0.6c-0.2,0.2-0.5,0.3-0.9,0.4
					c-0.3,0.1-0.8,0.2-1.2,0.2c-1,0-1.9-0.3-2.4-0.9c-0.6-0.6-0.9-1.4-0.9-2.4c0-0.5,0.1-0.9,0.2-1.3c0.1-0.4,0.3-0.8,0.6-1.1
					c0.3-0.3,0.6-0.5,1-0.7c0.4-0.2,0.8-0.2,1.3-0.2c0.6,0,1.2,0.1,1.6,0.4c0.5,0.3,0.8,0.6,1,1c0.2,0.4,0.3,0.9,0.3,1.3
					c0,0.4-0.1,0.7-0.4,0.8C273.9,480.9,273.6,481,273.2,481 M270,480.1h2.9c0-0.6-0.2-1-0.4-1.2c-0.3-0.3-0.6-0.4-1-0.4
					c-0.4,0-0.7,0.1-1,0.4C270.2,479.1,270.1,479.5,270,480.1"/>
				<path id="XMLID_553_" class="st2" d="M279.9,481h-3.2c0,0.4,0.1,0.7,0.2,1c0.1,0.3,0.3,0.5,0.6,0.6c0.2,0.1,0.5,0.2,0.8,0.2
					c0.2,0,0.4,0,0.5-0.1c0.2,0,0.3-0.1,0.5-0.2c0.2-0.1,0.3-0.2,0.4-0.3c0.1-0.1,0.3-0.3,0.5-0.4c0.1-0.1,0.2-0.1,0.4-0.1
					c0.2,0,0.3,0,0.4,0.1c0.1,0.1,0.2,0.2,0.2,0.4c0,0.1-0.1,0.3-0.2,0.5c-0.1,0.2-0.3,0.4-0.5,0.6c-0.2,0.2-0.5,0.3-0.9,0.4
					c-0.3,0.1-0.8,0.2-1.2,0.2c-1,0-1.8-0.3-2.4-0.9c-0.6-0.6-0.9-1.4-0.9-2.4c0-0.5,0.1-0.9,0.2-1.3c0.1-0.4,0.3-0.8,0.6-1.1
					c0.3-0.3,0.6-0.5,1-0.7c0.4-0.2,0.8-0.2,1.3-0.2c0.6,0,1.2,0.1,1.6,0.4c0.5,0.3,0.8,0.6,1,1c0.2,0.4,0.3,0.9,0.3,1.3
					c0,0.4-0.1,0.7-0.4,0.8C280.7,480.9,280.4,481,279.9,481 M276.8,480.1h2.9c0-0.6-0.2-1-0.4-1.2c-0.3-0.3-0.6-0.4-1-0.4
					c-0.4,0-0.7,0.1-1,0.4C277,479.1,276.8,479.5,276.8,480.1"/>
				<path id="XMLID_549_" class="st2" d="M283.5,478.2v0.2c0.3-0.4,0.6-0.7,1-0.8c0.3-0.2,0.7-0.3,1.1-0.3c0.5,0,1,0.1,1.4,0.4
					c0.4,0.3,0.7,0.6,1,1.1c0.2,0.5,0.4,1.1,0.4,1.8c0,0.5-0.1,1-0.2,1.4c-0.1,0.4-0.3,0.8-0.6,1c-0.2,0.3-0.5,0.5-0.9,0.7
					c-0.3,0.2-0.7,0.2-1.1,0.2c-0.5,0-0.9-0.1-1.2-0.3c-0.3-0.2-0.6-0.5-0.9-0.8v2.4c0,0.7-0.3,1.1-0.8,1.1c-0.3,0-0.5-0.1-0.6-0.3
					c-0.1-0.2-0.1-0.5-0.1-0.8v-7c0-0.3,0.1-0.5,0.2-0.7c0.1-0.1,0.3-0.2,0.6-0.2c0.2,0,0.4,0.1,0.6,0.2
					C283.4,477.7,283.5,477.9,283.5,478.2 M286.7,480.6c0-0.4-0.1-0.8-0.2-1.1c-0.1-0.3-0.3-0.5-0.5-0.7c-0.2-0.2-0.5-0.2-0.8-0.2
					c-0.4,0-0.8,0.2-1.1,0.5c-0.3,0.4-0.5,0.9-0.5,1.6c0,0.6,0.2,1.1,0.5,1.5c0.3,0.4,0.7,0.5,1.1,0.5c0.3,0,0.5-0.1,0.7-0.2
					c0.2-0.2,0.4-0.4,0.6-0.7C286.6,481.4,286.7,481,286.7,480.6"/>
				<path id="XMLID_546_" class="st2" d="M289.9,476.5c-0.2,0-0.4-0.1-0.6-0.2c-0.2-0.1-0.2-0.3-0.2-0.6c0-0.2,0.1-0.4,0.2-0.6
					c0.2-0.1,0.4-0.2,0.6-0.2c0.2,0,0.4,0.1,0.6,0.2c0.2,0.1,0.2,0.3,0.2,0.6c0,0.3-0.1,0.4-0.2,0.6
					C290.3,476.5,290.1,476.5,289.9,476.5 M290.7,478.2v4.7c0,0.3-0.1,0.6-0.2,0.7c-0.2,0.2-0.4,0.3-0.6,0.3c-0.2,0-0.4-0.1-0.6-0.3
					c-0.1-0.2-0.2-0.4-0.2-0.7v-4.6c0-0.3,0.1-0.6,0.2-0.7c0.2-0.2,0.3-0.2,0.6-0.2c0.2,0,0.4,0.1,0.6,0.2
					C290.6,477.7,290.7,477.9,290.7,478.2"/>
				<path id="XMLID_545_" class="st2" d="M296,483.1l-1.4-2.4l-0.9,0.8v1.3c0,0.3-0.1,0.6-0.2,0.7c-0.2,0.2-0.4,0.3-0.6,0.3
					c-0.2,0-0.4-0.1-0.6-0.3c-0.1-0.2-0.2-0.4-0.2-0.7V476c0-0.4,0.1-0.6,0.2-0.8c0.1-0.2,0.3-0.3,0.6-0.3c0.2,0,0.4,0.1,0.6,0.3
					c0.1,0.2,0.2,0.4,0.2,0.8v3.9l1.8-1.9c0.2-0.2,0.4-0.4,0.5-0.5c0.1-0.1,0.3-0.1,0.4-0.1c0.2,0,0.4,0.1,0.5,0.2
					c0.1,0.1,0.2,0.3,0.2,0.5c0,0.2-0.2,0.6-0.7,1l-0.9,0.8l1.7,2.6c0.1,0.2,0.2,0.3,0.3,0.4c0.1,0.1,0.1,0.2,0.1,0.3
					c0,0.3-0.1,0.5-0.2,0.6c-0.1,0.1-0.3,0.2-0.6,0.2c-0.2,0-0.4-0.1-0.5-0.2C296.3,483.6,296.1,483.4,296,483.1"/>
				<path id="XMLID_544_" class="st2" d="M299.5,483.9c-0.2,0-0.5-0.1-0.6-0.2c-0.2-0.2-0.3-0.4-0.3-0.7c0-0.2,0.1-0.4,0.3-0.6
					c0.2-0.2,0.4-0.3,0.6-0.3c0.2,0,0.5,0.1,0.6,0.3c0.2,0.2,0.3,0.4,0.3,0.6c0,0.3-0.1,0.5-0.3,0.7
					C299.9,483.8,299.7,483.9,299.5,483.9"/>
				<path id="XMLID_543_" class="st2" d="M307.5,481.9c0,0.2-0.1,0.4-0.2,0.6c-0.1,0.2-0.3,0.4-0.6,0.7c-0.2,0.2-0.6,0.4-0.9,0.5
					c-0.4,0.1-0.8,0.2-1.3,0.2c-1,0-1.8-0.3-2.3-0.9c-0.6-0.6-0.8-1.4-0.8-2.4c0-0.7,0.1-1.3,0.4-1.8c0.3-0.5,0.6-0.9,1.1-1.2
					c0.5-0.3,1.1-0.4,1.7-0.4c0.4,0,0.8,0.1,1.2,0.2c0.4,0.1,0.6,0.3,0.9,0.5c0.2,0.2,0.4,0.4,0.6,0.6c0.1,0.2,0.2,0.4,0.2,0.6
					c0,0.2-0.1,0.4-0.2,0.5c-0.1,0.1-0.3,0.2-0.5,0.2c-0.1,0-0.2,0-0.3-0.1c-0.1-0.1-0.2-0.2-0.3-0.3c-0.2-0.3-0.4-0.5-0.6-0.7
					c-0.2-0.2-0.5-0.2-0.8-0.2c-0.5,0-0.9,0.2-1.2,0.6c-0.3,0.4-0.4,0.9-0.4,1.5c0,0.3,0,0.6,0.1,0.8c0.1,0.3,0.2,0.5,0.3,0.7
					c0.1,0.2,0.3,0.3,0.5,0.4c0.2,0.1,0.4,0.1,0.7,0.1c0.3,0,0.6-0.1,0.8-0.2c0.2-0.2,0.4-0.4,0.6-0.7c0.1-0.2,0.2-0.3,0.3-0.4
					c0.1-0.1,0.3-0.2,0.4-0.2c0.2,0,0.4,0.1,0.5,0.2C307.5,481.5,307.5,481.7,307.5,481.9"/>
				<path id="XMLID_540_" class="st2" d="M314.5,480.6c0,0.5-0.1,0.9-0.2,1.3c-0.2,0.4-0.4,0.8-0.7,1c-0.3,0.3-0.6,0.5-1,0.7
					c-0.4,0.2-0.8,0.2-1.3,0.2c-0.5,0-0.9-0.1-1.3-0.2c-0.4-0.2-0.7-0.4-1-0.7c-0.3-0.3-0.5-0.6-0.7-1c-0.1-0.4-0.2-0.8-0.2-1.3
					c0-0.5,0.1-0.9,0.2-1.3c0.2-0.4,0.4-0.8,0.6-1c0.3-0.3,0.6-0.5,1-0.7c0.4-0.2,0.8-0.2,1.3-0.2c0.5,0,0.9,0.1,1.3,0.2
					c0.4,0.2,0.7,0.4,1,0.7c0.3,0.3,0.5,0.6,0.6,1C314.5,479.7,314.5,480.1,314.5,480.6 M312.9,480.6c0-0.7-0.1-1.2-0.4-1.5
					c-0.3-0.4-0.7-0.6-1.2-0.6c-0.3,0-0.6,0.1-0.8,0.2c-0.2,0.2-0.4,0.4-0.6,0.7c-0.1,0.3-0.2,0.7-0.2,1.1c0,0.4,0.1,0.8,0.2,1.1
					c0.1,0.3,0.3,0.6,0.6,0.7c0.2,0.2,0.5,0.3,0.8,0.3c0.5,0,0.9-0.2,1.2-0.6C312.8,481.8,312.9,481.2,312.9,480.6"/>
				<path id="XMLID_539_" class="st2" d="M320.7,480.7v2.2c0,0.3-0.1,0.6-0.2,0.8c-0.2,0.2-0.4,0.3-0.6,0.3c-0.2,0-0.4-0.1-0.6-0.3
					c-0.2-0.2-0.2-0.4-0.2-0.8v-2.6c0-0.4,0-0.7,0-1c0-0.2-0.1-0.4-0.2-0.6c-0.1-0.1-0.3-0.2-0.6-0.2c-0.5,0-0.9,0.2-1,0.5
					c-0.2,0.4-0.3,0.9-0.3,1.6v2.2c0,0.3-0.1,0.6-0.2,0.8c-0.2,0.2-0.4,0.3-0.6,0.3c-0.2,0-0.4-0.1-0.6-0.3
					c-0.2-0.2-0.2-0.4-0.2-0.8v-4.6c0-0.3,0.1-0.5,0.2-0.7c0.1-0.2,0.3-0.2,0.6-0.2c0.2,0,0.4,0.1,0.6,0.2c0.1,0.1,0.2,0.4,0.2,0.6
					v0.2c0.3-0.3,0.6-0.6,0.9-0.7c0.3-0.2,0.7-0.2,1.1-0.2c0.4,0,0.8,0.1,1,0.2c0.3,0.2,0.5,0.4,0.7,0.7c0.3-0.3,0.6-0.6,0.9-0.7
					c0.3-0.2,0.7-0.2,1-0.2c0.4,0,0.8,0.1,1.1,0.3c0.3,0.2,0.6,0.4,0.7,0.7c0.1,0.3,0.2,0.8,0.2,1.4v3.2c0,0.3-0.1,0.6-0.2,0.8
					c-0.2,0.2-0.4,0.3-0.6,0.3c-0.2,0-0.4-0.1-0.6-0.3c-0.2-0.2-0.2-0.4-0.2-0.8v-2.7c0-0.3,0-0.6,0-0.8c0-0.2-0.1-0.4-0.2-0.5
					c-0.1-0.1-0.3-0.2-0.6-0.2c-0.2,0-0.4,0.1-0.6,0.2c-0.2,0.1-0.3,0.3-0.5,0.5C320.8,479.5,320.7,480,320.7,480.7"/>
			</g>
			<g id="XMLID_462_">
				<path id="XMLID_537_" class="st2" d="M245.3,480.2C245.3,480.2,245.3,480.2,245.3,480.2C245.3,480.2,245.3,480.2,245.3,480.2z"
					/>
				<path id="XMLID_536_" class="st2" d="M245.4,480.7C245.4,480.7,245.4,480.7,245.4,480.7c0-0.1-0.1-0.3-0.1-0.4
					C245.3,480.4,245.3,480.6,245.4,480.7z"/>
				<path id="XMLID_535_" class="st2" d="M245.9,482.2C245.9,482.2,245.9,482.2,245.9,482.2C245.9,482.2,245.9,482.2,245.9,482.2z"
					/>
				<path id="XMLID_534_" class="st2" d="M245.8,482.1C245.8,482.1,245.8,482.1,245.8,482.1C245.8,482.1,245.8,482.1,245.8,482.1z"
					/>
				<path id="XMLID_533_" class="st2" d="M245.5,481.3c0.1,0.3,0.2,0.5,0.3,0.7C245.7,481.8,245.6,481.5,245.5,481.3L245.5,481.3z"
					/>
				<path id="XMLID_532_" class="st2" d="M251.5,474c0.3,0,0.5,0,0.8,0.1l0.1-0.5c0,0-0.7-0.2-1.7-0.1l-0.1-0.3
					c0.3-0.1,0.5-0.3,0.5-0.6c0-0.4-0.3-0.7-0.7-0.7c-0.4,0-0.7,0.3-0.7,0.7c0,0.3,0.2,0.6,0.5,0.6l0.1,0.3c-1,0.1-1.8,0.5-1.8,0.5
					l0.1,0.4c0.6-0.2,1.2-0.3,1.6-0.4C250.9,474,251.3,474,251.5,474z"/>
				<path id="XMLID_531_" class="st2" d="M245.9,476.4L245.9,476.4C245.9,476.4,245.9,476.3,245.9,476.4l-0.1-0.2l-0.3-0.2
					c0,0-0.5,0.5-0.9,1.3c0,0,0-0.1-0.1-0.1c-0.1-0.1-0.3-0.2-0.5-0.2c0,0,0,0,0,0c-0.1,0-0.2,0-0.3-0.1c0.1-0.1,0.1-0.2,0.1-0.3
					c0-0.2-0.2-0.4-0.4-0.4c-0.2,0-0.4,0.2-0.4,0.4c0,0.2,0.2,0.4,0.4,0.4c0,0,0.1,0,0.1,0c0.1,0.1,0.3,0.2,0.5,0.2
					c0.1,0,0.2,0,0.3,0.1c0.1,0.1,0.1,0.2,0.1,0.3c0,0,0,0,0,0c-0.3,0.7-0.2,1.7-0.2,1.7l0.7,0c0-0.3,0.1-0.9,0.2-1.4
					C245.4,477,245.9,476.4,245.9,476.4z"/>
				<path id="XMLID_530_" class="st2" d="M257.3,474.5c-0.2,0-0.4,0.2-0.4,0.4c0,0,0,0.1,0,0.1c-0.1,0.1-0.2,0.3-0.2,0.5
					c0,0.1,0,0.2-0.1,0.3c-0.1,0-0.1,0.1-0.2,0.1c-0.5-0.7-1.1-1.1-1.1-1.1l-0.5,0.5c0.4,0.3,0.7,0.7,1.1,1.2
					c0.2,0.4,0.5,0.8,0.7,1.3l0.6-0.3c0,0-0.3-0.7-0.7-1.4c0.1,0,0.1-0.1,0.2-0.1c0.1-0.1,0.2-0.3,0.2-0.5c0-0.1,0-0.2,0.1-0.3
					c0.1,0.1,0.2,0.1,0.3,0.1c0.2,0,0.4-0.2,0.4-0.4C257.7,474.7,257.5,474.5,257.3,474.5z"/>
				<path id="XMLID_529_" class="st2" d="M255.6,480.3c-0.9,0.4-2.3,1-4.2,1.3c-0.7,0.1-1.5,0.1-2.1,0.1c-0.9,0-1.6-0.1-2.2-0.1
					c-0.7-0.1-1.2-0.2-1.5-0.3c0.1,0.2,0.2,0.5,0.3,0.7c0,0,0,0,0,0c0,0,0,0.1,0,0.1c0,0,0,0.1,0,0.1c0,0,0,0,0,0
					c0.2,0.4,0.4,0.7,0.7,1c0.9,1,1.8,1.1,1.8,1.1l0,0l0,0c0,0,0.8,0.3,2.1,0.3c1.2,0,2.4-0.2,3.5-0.7c0.8-0.4,1.6-1.1,2-1.7
					c0.3-0.5,0.5-0.9,0.7-1.4c0.1-0.3,0.1-0.7,0.1-1.1C256.6,479.8,256.2,480,255.6,480.3z"/>
				<path id="XMLID_463_" class="st2" d="M246.2,476.6c0,0-0.4,0.6-0.7,1.4c-0.2,0.6-0.2,1.5-0.2,1.5v0c0,0.2,0,0.4,0,0.6
					c0,0,0,0,0,0c0,0,0,0.1,0,0.1c0,0.1,0,0.3,0.1,0.4c0.4,0.1,3,0.7,6,0.3c1.8-0.3,3.2-0.8,4.1-1.2c0.7-0.3,1.2-0.6,1.3-0.8
					c-0.2-0.6-0.7-1.7-1.1-2.3c-1.3-1.8-2.6-2.3-3.3-2.4c-0.3,0-0.5-0.1-0.8-0.1c-0.3,0-0.6,0-1.1,0.1c-0.5,0-1,0.2-1.6,0.4
					c-0.8,0.3-1.6,0.7-2.2,1.3l0,0C246.6,476.2,246.4,476.3,246.2,476.6z M253.8,476.2c0.6,0,1.1,0.5,1.1,1.1c0,0.6-0.5,1.1-1.1,1.1
					c-0.6,0-1.1-0.5-1.1-1.1C252.7,476.7,253.2,476.2,253.8,476.2z M248.7,476.1c1,0,1.8,0.8,1.8,1.8c0,1-0.8,1.8-1.8,1.8
					c-1,0-1.8-0.8-1.8-1.8C246.9,476.9,247.7,476.1,248.7,476.1z"/>
			</g>
		</g>
	</g>
</g>
</svg>
